<?xml version="1.0" encoding="UTF-8"?><svg id="a" xmlns="http://www.w3.org/2000/svg" viewBox="0 0 595.7 612.7"><path d="M406.5,456.6c-5.1,3-8.3,9.6-7.5,15.7l16.8,123.2c1.4,10.1-8.1,19.9-15.9,16.5L5.5,442.1c-7.9-3.4-7.2-17,1-22.9l99.7-71.4c4.9-3.5,7.6-10.4,6.2-16.2l-24.8-106.3c-1.4-6.2,1.7-13.6,7.3-16.8l93.8-54.7c5.1-3,8.3-9.6,7.5-15.7l-16.5-120.9c-1.4-10.1,8.1-19.9,15.9-16.5l394.4,170c7.9,3.4,7.2,17-1,22.9l-100.6,72c-4.9,3.5-7.6,10.4-6.2,16.2l24.2,104c1.4,6.2-1.8,13.6-7.3,16.8l-92.7,54.1Z" fill="#fdf6ec"/></svg>