<svg width="1219" height="473" viewBox="0 0 1219 473" fill="none" xmlns="http://www.w3.org/2000/svg">
<path d="M196.474 452.515C196.474 452.137 196.312 451.903 195.88 451.903C195.556 451.903 195.088 452.047 194.512 452.191C193.378 452.497 192.334 452.533 191.29 452.749C190.948 452.821 190.894 453.019 190.894 453.271C190.894 453.721 190.93 454.135 191.38 454.135C191.812 454.135 192.226 454.045 192.676 454.045C192.982 454.045 193.306 454.045 193.414 454.333C193.486 454.513 193.522 454.837 193.522 455.557V464.539C193.522 464.809 193.684 464.971 193.972 464.971H196.024C196.312 464.971 196.474 464.809 196.474 464.539V452.515Z" fill="#004C12"/>
<path d="M344.126 452.749C343.442 453.235 343.316 453.991 343.316 454.639C343.316 455.629 343.55 455.953 344.072 455.953C344.612 455.953 344.792 455.305 345.188 454.675C345.602 454.009 346.232 453.325 347.132 453.325C348.248 453.325 348.716 454.333 348.716 455.179C348.716 455.881 348.446 456.565 347.96 457.177C347.186 458.185 345.818 459.139 344.738 460.237C343.226 461.749 342.992 463.045 342.992 463.693C342.992 464.593 343.334 464.971 344.072 464.971H347.6C348.644 464.971 349.688 465.043 350.408 465.043C351.74 465.043 351.56 464.179 351.758 463.189C351.866 462.613 351.938 462.307 351.938 462.001C351.938 461.695 351.758 461.497 351.488 461.497C351.056 461.497 351.002 462.001 350.354 462.253C349.922 462.415 349.328 462.433 348.32 462.433H345.476C345.224 462.433 345.116 462.343 345.116 462.163C345.116 461.803 345.494 461.389 345.818 461.137C346.952 460.255 348.824 459.769 350.246 458.563C351.308 457.663 351.776 456.565 351.776 455.539C351.776 453.073 349.346 451.903 347.204 451.903C345.854 451.903 344.756 452.317 344.126 452.749Z" fill="#004C12"/>
<path d="M501.928 458.257C501.784 458.239 501.73 458.221 501.73 458.167C501.73 458.131 501.748 458.095 501.874 458.059C503.89 457.537 504.772 456.331 504.772 455.107C504.772 454.189 504.25 453.271 503.332 452.695C502.306 452.047 501.01 451.903 500.074 451.903C498.67 451.903 497.482 452.263 496.924 452.677C496.258 453.145 496.096 453.883 496.096 454.621C496.114 455.683 496.348 455.935 496.816 455.935C497.518 455.935 497.698 454.873 498.346 454.099C498.706 453.667 499.156 453.307 499.912 453.307C501.1 453.307 501.55 454.333 501.55 455.305C501.55 456.493 501.082 457.447 499.66 457.447C499.192 457.447 498.85 457.375 498.58 457.375C498.166 457.375 497.932 457.573 497.932 457.969V458.437C497.932 458.851 498.166 459.049 498.598 459.049C498.886 459.049 499.246 458.959 499.75 458.959C501.136 458.959 501.82 459.823 501.82 461.155C501.82 462.613 501.226 463.729 499.93 463.729C498.832 463.729 498.22 463.009 497.77 462.271C497.32 461.533 497.158 460.759 496.51 460.759C495.736 460.759 495.7 461.371 495.7 462.127C495.7 462.649 495.754 463.333 496.06 463.801C496.654 464.701 498.256 465.169 499.93 465.169C501.622 465.169 503.062 464.719 504.106 463.729C504.808 463.045 505.168 462.163 505.168 461.317C505.168 459.445 503.602 458.455 501.928 458.257Z" fill="#004C12"/>
<path d="M651.563 459.607C651.437 459.607 651.401 459.571 651.401 459.463V454.855C651.401 454.639 651.275 454.549 651.041 454.549H649.007C648.791 454.549 648.665 454.657 648.665 454.855V459.463C648.665 459.571 648.629 459.607 648.521 459.607H645.497C645.407 459.607 645.389 459.553 645.389 459.517C645.389 459.481 645.407 459.463 645.443 459.409C647.351 456.763 648.557 454.585 648.647 452.281V452.209C648.647 451.993 648.521 451.903 648.287 451.903H646.721C646.451 451.903 646.289 452.029 646.289 452.281C646.217 454.585 645.479 456.619 643.661 459.463C643.463 459.769 643.427 459.895 643.427 460.255V461.317C643.427 461.605 643.517 461.695 643.787 461.695H648.521C648.647 461.695 648.665 461.731 648.665 461.911C648.647 462.685 648.557 462.991 648.485 463.189C648.377 463.495 648.179 463.765 647.819 463.963C647.567 464.107 647.369 464.233 647.369 464.503C647.369 464.809 647.675 464.971 648.071 464.971H651.995C652.391 464.971 652.697 464.809 652.697 464.503C652.697 464.233 652.499 464.107 652.247 463.963C651.905 463.765 651.689 463.495 651.581 463.189C651.509 462.991 651.437 462.685 651.419 461.911C651.419 461.749 651.437 461.695 651.545 461.695H653.057C653.363 461.695 653.507 461.569 653.507 461.281V460.021C653.507 459.751 653.363 459.607 653.075 459.607H651.563Z" fill="#004C12"/>
<path d="M809.387 457.609C808.199 456.601 806.489 456.187 804.581 456.169C804.419 456.169 804.365 456.097 804.365 455.989C804.365 455.971 804.365 455.953 804.383 455.863L804.599 454.819C804.617 454.711 804.671 454.639 804.815 454.639C804.923 454.639 808.379 454.639 808.379 454.639C809.189 454.639 809.477 454.621 809.711 454.423C810.053 454.135 810.053 453.523 810.197 452.695C810.251 452.335 810.323 452.029 810.323 451.723C810.323 451.435 810.161 451.255 809.891 451.255C809.675 451.255 809.513 451.363 809.279 451.615C809.081 451.813 808.883 451.939 808.595 452.011C808.235 452.101 807.641 452.119 806.741 452.119C806.741 452.119 804.365 452.119 804.113 452.119C803.897 452.119 803.771 452.191 803.735 452.389L802.565 458.221C802.529 458.401 802.529 458.437 802.529 458.455C802.529 458.563 802.619 458.617 802.781 458.617H803.213C805.301 458.617 806.813 459.139 807.695 459.751C808.505 460.309 808.865 461.047 808.865 461.749C808.865 463.009 807.803 463.801 806.651 463.801C805.427 463.801 804.707 463.063 804.239 462.361C803.771 461.677 803.627 460.795 802.943 460.795C802.385 460.795 802.133 461.155 802.133 461.659C802.133 462.811 802.187 463.405 802.547 463.909C803.123 464.737 804.545 465.169 805.931 465.169C808.703 465.169 810.845 463.351 810.845 460.723C810.845 459.607 810.413 458.491 809.387 457.609Z" fill="#004C12"/>
<path d="M957.801 460.885C957.801 458.941 958.665 458.059 959.709 458.059C960.843 458.059 961.527 459.229 961.527 460.885C961.527 462.451 960.951 463.729 959.655 463.729C958.575 463.729 957.801 462.721 957.801 460.885ZM963.543 454.243C963.543 453.649 963.471 453.127 963.093 452.731C962.661 452.281 961.581 451.903 960.339 451.903C956.127 451.903 954.813 456.241 954.813 459.193C954.813 462.325 956.307 465.169 959.637 465.169C962.661 465.169 964.389 462.811 964.389 460.237C964.389 458.005 962.841 456.223 960.645 456.223C959.385 456.223 958.377 456.871 957.855 457.753C957.819 457.825 957.801 457.843 957.765 457.843C957.729 457.843 957.711 457.807 957.711 457.771C957.747 455.161 958.449 453.289 959.925 453.289C960.717 453.289 961.239 453.883 961.653 454.567C961.995 455.143 962.247 455.701 962.715 455.701C963.309 455.701 963.543 455.215 963.543 454.243Z" fill="#004C12"/>
<path d="M1117.03 452.389C1117.01 452.173 1116.87 452.119 1116.69 452.119C1116.51 452.119 1110.01 452.119 1110.01 452.119C1109.2 452.119 1108.91 452.137 1108.68 452.335C1108.32 452.641 1108.34 453.253 1108.19 454.081C1108.12 454.513 1108.05 454.801 1108.05 454.981C1108.05 455.233 1108.14 455.521 1108.5 455.521C1108.7 455.521 1108.86 455.413 1109.11 455.161C1109.31 454.963 1109.51 454.837 1109.78 454.765C1110.14 454.675 1110.75 454.657 1111.65 454.657C1111.65 454.657 1112.32 454.657 1114.84 454.657C1115 454.657 1115.12 454.693 1115.12 454.837C1115.12 454.855 1115.12 454.891 1115.09 454.999C1114.87 455.539 1114.57 456.007 1114.04 456.709C1113.22 457.825 1111.88 459.085 1110.82 460.399C1109.71 461.785 1109.27 463.099 1109.27 464.143C1109.27 464.845 1109.45 464.971 1109.94 464.971H1112.48C1112.82 464.971 1113.05 464.791 1113.05 464.557C1113.05 464.377 1112.98 464.269 1112.82 464.125C1112.53 463.873 1112.17 463.531 1112.17 462.793C1112.17 461.767 1112.75 460.741 1114.26 458.779C1115.84 456.709 1117.05 455.485 1117.05 452.893C1117.05 452.731 1117.05 452.569 1117.03 452.389Z" fill="#004C12"/>
<rect x="54" y="422.639" width="1165" height="1.33193" fill="#004C12"/>
<rect x="54" y="296.105" width="1165" height="1.33193" fill="#004C12"/>
<rect x="54" y="169.571" width="1165" height="1.33193" fill="#004C12"/>
<rect x="54" y="44.9707" width="1165" height="1.33193" fill="#004C12"/>
<path d="M16.8298 290.371C16.8298 290.047 16.6498 289.903 16.3798 289.903C16.1638 289.903 15.8758 289.993 15.4798 290.101C14.4178 290.389 13.4998 290.425 12.7438 290.533C12.4558 290.569 12.4018 290.749 12.4018 291.001C12.4018 291.307 12.5278 291.451 12.8878 291.451C13.3018 291.451 13.8058 291.415 14.2378 291.415C14.9938 291.415 15.0298 291.649 15.0298 292.891V302.683C15.0298 302.881 15.1558 302.971 15.3538 302.971H16.5238C16.7038 302.971 16.8298 302.881 16.8298 302.683V290.371ZM28.3836 296.599C28.3836 300.415 26.9976 302.233 25.1256 302.233C23.1816 302.233 21.8136 299.803 21.8136 296.401C21.8136 293.053 22.9656 290.821 25.0896 290.821C26.9256 290.821 28.3836 293.215 28.3836 296.599ZM30.3456 296.383C30.3456 292.495 28.4016 289.903 25.2876 289.903C22.1556 289.903 19.8336 292.909 19.8336 296.725C19.8336 300.163 21.4176 303.169 24.9456 303.169C28.0056 303.169 30.3456 300.361 30.3456 296.383ZM36.5721 293.359C36.5721 295.195 36.0681 296.113 35.2401 296.113C34.4301 296.113 33.8721 294.889 33.8721 293.359C33.8721 291.685 34.3041 290.605 35.1861 290.605C35.9961 290.605 36.5721 291.775 36.5721 293.359ZM38.0481 293.359C38.0481 291.343 37.0401 289.921 35.2221 289.921C33.5841 289.921 32.3961 291.433 32.3961 293.359C32.3961 295.213 33.2241 296.815 35.2221 296.815C36.8421 296.815 38.0481 295.339 38.0481 293.359ZM43.6281 299.713C43.6281 301.549 43.1241 302.467 42.2961 302.467C41.4861 302.467 40.9281 301.243 40.9281 299.713C40.9281 298.039 41.3601 296.959 42.2421 296.959C43.0521 296.959 43.6281 298.129 43.6281 299.713ZM45.1041 299.713C45.1041 297.697 44.0961 296.275 42.2781 296.275C40.6401 296.275 39.4521 297.787 39.4521 299.713C39.4521 301.567 40.2801 303.169 42.2781 303.169C43.8981 303.169 45.1041 301.693 45.1041 299.713ZM34.3401 302.971H35.4381L43.2861 290.119H42.1881L34.3401 302.971Z" fill="#004C12"/>
<path d="M12.1019 164.893C11.6879 165.253 11.5799 165.955 11.5799 166.495C11.5799 166.999 11.6339 167.521 12.0659 167.521C12.4799 167.521 12.6419 166.981 12.9839 166.387C13.4159 165.649 14.0639 164.839 15.3059 164.839C16.7279 164.839 17.5559 166.009 17.5559 167.233C17.5559 168.025 17.1959 168.835 16.4399 169.555C15.4499 170.527 14.2799 171.193 13.0379 172.327C11.4359 173.767 11.2199 175.243 11.2199 175.945C11.2199 176.755 11.4179 176.971 12.0659 176.971H15.7559C16.7819 176.971 17.6099 177.043 18.4379 177.043C19.4819 177.043 19.3919 176.611 19.5179 175.729C19.5719 175.333 19.6259 175.027 19.6259 174.793C19.6259 174.559 19.5359 174.415 19.3199 174.415C18.9239 174.415 18.8879 175.009 18.3839 175.189C18.0599 175.297 17.5019 175.315 16.4219 175.315H12.8039C12.5519 175.315 12.4439 175.207 12.4439 174.991C12.4439 174.685 12.6779 174.109 13.0739 173.641C14.3519 172.165 16.7279 171.481 18.2219 170.095C19.0859 169.285 19.4639 168.367 19.4639 167.431C19.4639 165.343 17.6459 163.903 15.2699 163.903C13.7399 163.903 12.5879 164.461 12.1019 164.893ZM30.1415 170.599C30.1415 174.415 28.7555 176.233 26.8835 176.233C24.9395 176.233 23.5715 173.803 23.5715 170.401C23.5715 167.053 24.7235 164.821 26.8475 164.821C28.6835 164.821 30.1415 167.215 30.1415 170.599ZM32.1035 170.383C32.1035 166.495 30.1595 163.903 27.0455 163.903C23.9135 163.903 21.5915 166.909 21.5915 170.725C21.5915 174.163 23.1755 177.169 26.7035 177.169C29.7635 177.169 32.1035 174.361 32.1035 170.383ZM38.3299 167.359C38.3299 169.195 37.8259 170.113 36.9979 170.113C36.1879 170.113 35.6299 168.889 35.6299 167.359C35.6299 165.685 36.0619 164.605 36.9439 164.605C37.7539 164.605 38.3299 165.775 38.3299 167.359ZM39.8059 167.359C39.8059 165.343 38.7979 163.921 36.9799 163.921C35.3419 163.921 34.1539 165.433 34.1539 167.359C34.1539 169.213 34.9819 170.815 36.9799 170.815C38.5999 170.815 39.8059 169.339 39.8059 167.359ZM45.3859 173.713C45.3859 175.549 44.8819 176.467 44.0539 176.467C43.2439 176.467 42.6859 175.243 42.6859 173.713C42.6859 172.039 43.1179 170.959 43.9999 170.959C44.8099 170.959 45.3859 172.129 45.3859 173.713ZM46.8619 173.713C46.8619 171.697 45.8539 170.275 44.0359 170.275C42.3979 170.275 41.2099 171.787 41.2099 173.713C41.2099 175.567 42.0379 177.169 44.0359 177.169C45.6559 177.169 46.8619 175.693 46.8619 173.713ZM36.0979 176.971H37.1959L45.0439 164.119H43.9459L36.0979 176.971Z" fill="#004C12"/>
<path d="M16.6225 45.2207C16.4965 45.2027 16.4605 45.1847 16.4605 45.1487C16.4605 45.1127 16.4965 45.0947 16.5865 45.0767C18.4765 44.6447 19.2865 43.4027 19.2865 42.1607C19.2865 40.4327 17.7925 38.9027 15.1465 38.9027C13.7425 38.9027 12.5725 39.3167 12.0685 39.7307C11.6005 40.1087 11.4205 40.5767 11.4205 41.4047C11.4205 41.9807 11.4565 42.5567 11.9065 42.5567C12.1585 42.5567 12.3025 42.3587 12.4465 42.1247C12.7345 41.5847 12.9685 41.0627 13.4545 40.5587C13.9945 40.0007 14.6425 39.8207 15.1825 39.8207C16.5865 39.8207 17.3785 40.8827 17.3785 42.1787C17.3785 43.7447 16.4245 44.6627 15.0025 44.6807C14.3005 44.6807 13.9225 44.5907 13.6525 44.5907C13.3645 44.5907 13.2205 44.7707 13.2205 45.0047V45.2027C13.2205 45.5987 13.4005 45.7427 13.7065 45.7427C13.9585 45.7427 14.2825 45.6707 14.8405 45.6707C16.7125 45.6707 17.7565 46.6787 17.7565 48.3347C17.7565 49.9727 16.7665 51.2147 15.2545 51.2147C13.7965 51.2147 13.0045 50.1707 12.5905 49.5047C12.1405 48.7667 12.1225 48.2267 11.5645 48.2267C11.1505 48.2267 11.0425 48.5327 11.0425 49.1267C11.0425 49.5947 11.0785 50.4047 11.3485 50.8547C11.8525 51.7187 13.3465 52.1687 14.8585 52.1687C18.1525 52.1687 19.7185 50.1707 19.7185 48.2987C19.7185 46.4987 18.2785 45.4007 16.6225 45.2207ZM30.2469 45.5987C30.2469 49.4147 28.8609 51.2327 26.9889 51.2327C25.0449 51.2327 23.6769 48.8027 23.6769 45.4007C23.6769 42.0527 24.8289 39.8207 26.9529 39.8207C28.7889 39.8207 30.2469 42.2147 30.2469 45.5987ZM32.2089 45.3827C32.2089 41.4947 30.2649 38.9027 27.1509 38.9027C24.0189 38.9027 21.6969 41.9087 21.6969 45.7247C21.6969 49.1627 23.2809 52.1687 26.8089 52.1687C29.8689 52.1687 32.2089 49.3607 32.2089 45.3827ZM38.4354 42.3587C38.4354 44.1947 37.9314 45.1127 37.1034 45.1127C36.2934 45.1127 35.7354 43.8887 35.7354 42.3587C35.7354 40.6847 36.1674 39.6047 37.0494 39.6047C37.8594 39.6047 38.4354 40.7747 38.4354 42.3587ZM39.9114 42.3587C39.9114 40.3427 38.9034 38.9207 37.0854 38.9207C35.4474 38.9207 34.2594 40.4327 34.2594 42.3587C34.2594 44.2127 35.0874 45.8147 37.0854 45.8147C38.7054 45.8147 39.9114 44.3387 39.9114 42.3587ZM45.4914 48.7127C45.4914 50.5487 44.9874 51.4667 44.1594 51.4667C43.3494 51.4667 42.7914 50.2427 42.7914 48.7127C42.7914 47.0387 43.2234 45.9587 44.1054 45.9587C44.9154 45.9587 45.4914 47.1287 45.4914 48.7127ZM46.9674 48.7127C46.9674 46.6967 45.9594 45.2747 44.1414 45.2747C42.5034 45.2747 41.3154 46.7867 41.3154 48.7127C41.3154 50.5667 42.1434 52.1687 44.1414 52.1687C45.7614 52.1687 46.9674 50.6927 46.9674 48.7127ZM36.2034 51.9707H37.3014L45.1494 39.1187H44.0514L36.2034 51.9707Z" fill="#004C12"/>
<path d="M159 22.9707C159 14.6864 165.716 7.9707 174 7.9707H214C222.284 7.9707 229 14.6864 229 22.9707V421.971H159V22.9707Z" fill="#CCFC51" stroke="#004C12" stroke-width="2"/>
<path d="M313 129.971C313 121.686 319.716 114.971 328 114.971H368C376.284 114.971 383 121.686 383 129.971V422.971H313V129.971Z" fill="#CCFC51" stroke="#004C12" stroke-width="2"/>
<path d="M465 181.971C465 173.686 471.716 166.971 480 166.971H520C528.284 166.971 535 173.686 535 181.971V422.971H465V181.971Z" fill="#CCFC51" stroke="#004C12" stroke-width="2"/>
<path d="M618 262.971C618 254.686 624.716 247.971 633 247.971H673C681.284 247.971 688 254.686 688 262.971V422.971H618V262.971Z" fill="#CCFC51" stroke="#004C12" stroke-width="2"/>
<path d="M772 312.971C772 304.686 778.716 297.971 787 297.971H827C835.284 297.971 842 304.686 842 312.971V422.971H772V312.971Z" fill="#CCFC51" stroke="#004C12" stroke-width="2"/>
<path d="M924 326.971C924 318.686 930.716 311.971 939 311.971H979C987.284 311.971 994 318.686 994 326.971V422.971H924V326.971Z" fill="#CCFC51" stroke="#004C12" stroke-width="2"/>
<path d="M1078 420.971C1078 412.686 1084.72 405.971 1093 405.971H1133C1141.28 405.971 1148 412.686 1148 420.971V422.971H1078V420.971Z" fill="#CCFC51" stroke="#004C12" stroke-width="2"/>
<rect x="119" y="246.971" width="152" height="108" rx="20" fill="#FFF8E0"/>
<path d="M153.883 275.171C153.883 274.919 153.743 274.807 153.533 274.807C153.365 274.807 153.141 274.877 152.833 274.961C152.007 275.185 151.293 275.213 150.705 275.297C150.481 275.325 150.439 275.465 150.439 275.661C150.439 275.899 150.537 276.011 150.817 276.011C151.139 276.011 151.531 275.983 151.867 275.983C152.455 275.983 152.483 276.165 152.483 277.131V284.747C152.483 284.901 152.581 284.971 152.735 284.971H153.645C153.785 284.971 153.883 284.901 153.883 284.747V275.171ZM161.451 275.465C161.451 275.143 160.779 274.457 160.457 274.457C160.135 274.457 159.463 275.143 159.463 275.465C159.463 275.773 160.135 276.459 160.457 276.459C160.779 276.459 161.451 275.773 161.451 275.465ZM161.157 282.521V277.873C161.157 277.621 161.031 277.509 160.863 277.509C160.779 277.509 160.695 277.537 160.597 277.579C160.177 277.761 159.785 277.873 159.267 277.985C158.931 278.055 158.875 278.167 158.875 278.307C158.875 278.447 159.015 278.517 159.211 278.587C159.421 278.657 159.589 278.741 159.673 278.881C159.813 279.105 159.813 279.427 159.813 280.029V282.521C159.813 283.207 159.785 283.669 159.645 283.949C159.421 284.397 158.931 284.411 158.931 284.705C158.931 284.901 159.099 284.971 159.309 284.971H161.647C161.857 284.971 162.039 284.901 162.039 284.705C162.039 284.411 161.577 284.439 161.325 283.949C161.185 283.669 161.157 283.221 161.157 282.521ZM170.027 280.281C170.027 279.301 169.859 278.797 169.551 278.377C169.173 277.859 168.515 277.509 167.717 277.509C166.667 277.509 165.883 278.083 165.449 278.727C165.421 278.769 165.407 278.797 165.379 278.797C165.351 278.797 165.337 278.769 165.337 278.727V277.901C165.337 277.635 165.211 277.509 165.029 277.509C164.945 277.509 164.861 277.537 164.763 277.579C164.399 277.747 163.979 277.887 163.461 277.999C163.139 278.069 163.069 278.167 163.069 278.321C163.069 278.629 163.657 278.559 163.881 278.895C164.007 279.077 164.021 279.329 164.021 279.777V282.507C164.021 283.193 163.979 283.669 163.853 283.949C163.643 284.397 163.139 284.411 163.139 284.705C163.139 284.901 163.307 284.971 163.517 284.971H165.841C166.051 284.971 166.219 284.901 166.219 284.705C166.219 284.453 165.771 284.411 165.533 284.005C165.379 283.739 165.337 283.221 165.337 282.507C165.337 280.351 165.463 279.595 165.995 279.063C166.331 278.727 166.779 278.573 167.199 278.573C168.025 278.573 168.669 279.105 168.669 280.323V282.507C168.669 283.207 168.627 283.711 168.487 283.977C168.263 284.411 167.787 284.425 167.787 284.705C167.787 284.901 167.969 284.971 168.179 284.971H170.531C170.741 284.971 170.923 284.901 170.923 284.705C170.923 284.453 170.475 284.397 170.237 284.033C170.069 283.767 170.027 283.235 170.027 282.507V280.281ZM179.176 279.721C179.078 279.707 179.05 279.693 179.05 279.665C179.05 279.637 179.078 279.623 179.148 279.609C180.618 279.273 181.248 278.307 181.248 277.341C181.248 275.997 180.086 274.807 178.028 274.807C176.936 274.807 176.026 275.129 175.634 275.451C175.27 275.745 175.13 276.109 175.13 276.753C175.13 277.201 175.158 277.649 175.508 277.649C175.704 277.649 175.816 277.495 175.928 277.313C176.152 276.893 176.334 276.487 176.712 276.095C177.132 275.661 177.636 275.521 178.056 275.521C179.148 275.521 179.764 276.347 179.764 277.355C179.764 278.573 179.022 279.287 177.916 279.301C177.37 279.301 177.076 279.231 176.866 279.231C176.642 279.231 176.53 279.371 176.53 279.553V279.707C176.53 280.015 176.67 280.127 176.908 280.127C177.104 280.127 177.356 280.071 177.79 280.071C179.246 280.071 180.058 280.855 180.058 282.143C180.058 283.417 179.288 284.383 178.112 284.383C176.978 284.383 176.362 283.571 176.04 283.053C175.69 282.479 175.676 282.059 175.242 282.059C174.92 282.059 174.836 282.297 174.836 282.759C174.836 283.123 174.864 283.753 175.074 284.103C175.466 284.775 176.628 285.125 177.804 285.125C180.366 285.125 181.584 283.571 181.584 282.115C181.584 280.715 180.464 279.861 179.176 279.721ZM191.77 283.459C191.77 283.319 191.672 283.193 191.518 283.193C191.196 283.193 190.72 284.131 189.474 284.131C187.878 284.131 187.164 282.647 187.164 281.107C187.164 279.329 188.088 278.265 189.18 278.265C189.922 278.265 190.356 278.783 190.566 279.133C190.776 279.483 190.846 279.819 191.168 279.819C191.434 279.819 191.574 279.623 191.574 278.965C191.574 278.629 191.518 278.237 191.308 278.027C190.944 277.649 190.132 277.509 189.572 277.509C187.234 277.509 185.764 279.581 185.764 281.751C185.764 283.851 187.178 285.125 188.956 285.125C190.804 285.125 191.77 283.837 191.77 283.459ZM196.88 277.509C195.984 277.509 195.228 278.391 194.934 278.993C194.92 279.021 194.906 279.063 194.878 279.063C194.85 279.063 194.85 279.035 194.85 279.007V277.901C194.85 277.649 194.738 277.509 194.528 277.509C194.43 277.509 194.318 277.537 194.192 277.593C193.786 277.775 193.506 277.873 193.044 277.971C192.75 278.027 192.666 278.125 192.666 278.279C192.666 278.587 193.212 278.531 193.464 278.895C193.59 279.077 193.646 279.413 193.646 280.015V282.521C193.646 283.207 193.604 283.655 193.492 283.921C193.268 284.425 192.764 284.411 192.764 284.705C192.764 284.901 192.932 284.971 193.156 284.971H195.466C195.69 284.971 195.858 284.901 195.858 284.705C195.858 284.397 195.396 284.453 195.144 283.949C195.004 283.669 194.976 283.207 194.976 282.521C194.976 280.435 195.214 279.777 195.55 279.273C195.788 278.909 196.082 278.783 196.348 278.783C196.768 278.783 196.95 279.091 197.286 279.091C197.65 279.091 197.762 278.783 197.762 278.447C197.762 277.887 197.426 277.509 196.88 277.509ZM199.465 280.183C199.633 279.147 200.347 278.195 201.467 278.195C202.461 278.195 203.021 278.965 203.021 279.609C203.021 280.253 202.657 280.421 201.845 280.421C201.845 280.421 199.661 280.421 199.563 280.421C199.479 280.421 199.451 280.407 199.451 280.337C199.451 280.323 199.451 280.295 199.465 280.183ZM203.987 283.165C203.651 283.165 203.091 284.117 201.719 284.117C200.235 284.117 199.395 282.801 199.395 281.331V281.261C199.395 281.163 199.451 281.121 199.549 281.121C199.647 281.121 203.343 281.121 203.343 281.121C204.029 281.107 204.449 280.981 204.449 280.127C204.449 279.147 203.609 277.509 201.593 277.509C199.423 277.509 197.967 279.483 197.967 281.527C197.967 283.445 199.227 285.125 201.369 285.125C203.231 285.125 204.295 283.851 204.295 283.459C204.295 283.263 204.155 283.165 203.987 283.165ZM209.656 281.261C209.656 282.115 209.642 282.731 209.362 283.319C209.026 284.005 208.396 284.313 207.85 284.313C207.108 284.313 206.73 283.809 206.73 283.249C206.73 282.857 206.926 282.423 207.43 282.087C208.102 281.639 209.026 281.401 209.516 281.023C209.572 280.981 209.586 280.967 209.614 280.967C209.642 280.967 209.656 280.995 209.656 281.023V281.261ZM211.462 284.117C211.182 284.117 211.014 283.893 211.014 283.403C211.014 282.283 211.056 280.995 211.056 279.903C211.056 278.517 210.132 277.509 208.34 277.509C207.542 277.509 206.408 277.705 206.03 278.195C205.862 278.405 205.792 278.853 205.792 279.217C205.792 279.581 205.848 279.903 206.184 279.903C206.492 279.903 206.534 279.651 206.814 279.259C207.164 278.769 207.598 278.223 208.438 278.223C209.194 278.223 209.656 278.699 209.656 279.371C209.656 280.127 209.04 280.533 208.48 280.785C207.71 281.149 206.842 281.303 206.114 281.793C205.526 282.171 205.246 282.759 205.246 283.319C205.246 284.285 206.072 285.125 207.43 285.125C208.298 285.125 209.166 284.761 209.67 284.005C209.698 283.963 209.698 283.949 209.726 283.949C209.754 283.949 209.754 283.991 209.754 284.019C209.838 284.845 210.356 285.125 210.818 285.125C211.434 285.125 211.868 284.607 211.868 284.341C211.868 284.201 211.756 284.117 211.63 284.117H211.462ZM217.319 283.501C217.053 283.501 216.787 284.047 216.059 284.047C215.513 284.047 215.051 283.739 214.953 282.633C214.897 281.989 214.897 281.527 214.897 281.009C214.897 280.589 214.939 279.049 214.939 278.867C214.939 278.755 214.995 278.699 215.107 278.699C215.359 278.699 215.583 278.699 215.863 278.713C216.199 278.727 216.507 278.769 216.759 278.769C217.123 278.769 217.305 278.671 217.361 278.335C217.375 278.237 217.403 278.139 217.403 278.069C217.403 277.887 217.263 277.817 216.955 277.817C216.661 277.817 216.269 277.859 215.975 277.887C215.653 277.915 215.471 277.915 215.261 277.915C215.009 277.915 214.953 277.845 214.953 277.593V276.137C214.953 276.039 214.897 275.983 214.785 275.983H214.211C214.099 275.983 214.057 276.039 214.029 276.151C213.931 276.613 213.875 276.991 213.707 277.271C213.539 277.551 213.231 277.747 212.615 277.915C212.517 277.943 212.475 277.999 212.475 278.083V278.531C212.475 278.643 212.531 278.699 212.629 278.699H213.511C213.609 278.699 213.651 278.741 213.651 278.839C213.651 280.225 213.553 281.485 213.553 282.717C213.553 283.431 213.665 284.005 213.945 284.383C214.281 284.845 214.785 285.125 215.471 285.125C216.129 285.125 216.689 284.859 217.067 284.523C217.361 284.271 217.571 283.949 217.571 283.739C217.571 283.599 217.459 283.501 217.319 283.501ZM223.998 281.681C223.998 283.053 223.396 284.397 222.01 284.397C220.638 284.397 219.728 282.787 219.728 280.855C219.728 279.301 220.484 278.209 221.716 278.209C223.284 278.209 223.998 280.071 223.998 281.681ZM221.912 277.509C219.784 277.509 218.3 279.259 218.3 281.373C218.3 283.655 219.742 285.125 221.87 285.125C223.956 285.125 225.426 283.375 225.426 281.275C225.426 279.161 224.138 277.509 221.912 277.509ZM230.674 277.509C229.778 277.509 229.022 278.391 228.728 278.993C228.714 279.021 228.7 279.063 228.672 279.063C228.644 279.063 228.644 279.035 228.644 279.007V277.901C228.644 277.649 228.532 277.509 228.322 277.509C228.224 277.509 228.112 277.537 227.986 277.593C227.58 277.775 227.3 277.873 226.838 277.971C226.544 278.027 226.46 278.125 226.46 278.279C226.46 278.587 227.006 278.531 227.258 278.895C227.384 279.077 227.44 279.413 227.44 280.015V282.521C227.44 283.207 227.398 283.655 227.286 283.921C227.062 284.425 226.558 284.411 226.558 284.705C226.558 284.901 226.726 284.971 226.95 284.971H229.26C229.484 284.971 229.652 284.901 229.652 284.705C229.652 284.397 229.19 284.453 228.938 283.949C228.798 283.669 228.77 283.207 228.77 282.521C228.77 280.435 229.008 279.777 229.344 279.273C229.582 278.909 229.876 278.783 230.142 278.783C230.562 278.783 230.744 279.091 231.08 279.091C231.444 279.091 231.556 278.783 231.556 278.447C231.556 277.887 231.22 277.509 230.674 277.509ZM231.896 283.095C231.896 283.529 231.98 284.145 232.274 284.439C232.638 284.803 233.548 285.125 234.528 285.125C236.278 285.125 237.454 284.075 237.454 282.787C237.454 281.513 236.46 281.037 235.452 280.701C234.43 280.351 233.394 280.155 233.394 279.287C233.394 278.629 234.024 278.237 234.612 278.237C235.312 278.237 235.718 278.657 235.998 279.063C236.292 279.497 236.32 279.791 236.656 279.791C237.062 279.791 237.076 279.301 237.076 278.979C237.076 278.629 236.992 278.181 236.628 277.915C236.306 277.677 235.648 277.509 234.962 277.509C233.422 277.509 232.162 278.419 232.162 279.777C232.162 282.269 236.208 281.387 236.208 283.221C236.208 283.851 235.648 284.397 234.794 284.397C233.926 284.397 233.422 283.865 233.058 283.361C232.75 282.927 232.596 282.493 232.274 282.493C231.952 282.493 231.896 282.787 231.896 283.095ZM154.039 303.767C153.899 303.543 153.899 303.221 153.899 302.619V297.873C153.899 297.621 153.773 297.495 153.591 297.495C153.507 297.495 153.423 297.523 153.325 297.565C152.947 297.733 152.555 297.845 152.009 297.971C151.701 298.041 151.631 298.139 151.631 298.293C151.631 298.629 152.191 298.531 152.429 298.881C152.569 299.091 152.569 299.469 152.569 300.141C152.569 302.283 152.401 303.067 151.883 303.585C151.547 303.921 151.113 304.061 150.707 304.061C149.699 304.061 149.251 303.305 149.251 302.339V297.873C149.251 297.621 149.125 297.509 148.943 297.509C148.831 297.509 148.761 297.537 148.621 297.593C148.243 297.747 147.921 297.845 147.361 297.971C147.081 298.027 146.983 298.125 146.983 298.265C146.983 298.629 147.557 298.531 147.781 298.881C147.921 299.091 147.921 299.413 147.921 300.015V302.367C147.921 303.207 148.047 303.865 148.439 304.341C148.873 304.873 149.489 305.125 150.189 305.125C151.169 305.125 151.995 304.621 152.457 303.907C152.485 303.865 152.499 303.837 152.527 303.837C152.555 303.837 152.569 303.851 152.569 303.879C152.569 303.921 152.569 304.747 152.569 304.747C152.569 305.013 152.681 305.125 152.877 305.125C152.947 305.125 153.031 305.111 153.171 305.055C153.521 304.915 153.913 304.789 154.459 304.663C154.739 304.607 154.837 304.509 154.837 304.341C154.837 304.019 154.235 304.075 154.039 303.767ZM155.732 303.095C155.732 303.529 155.816 304.145 156.11 304.439C156.474 304.803 157.384 305.125 158.364 305.125C160.114 305.125 161.29 304.075 161.29 302.787C161.29 301.513 160.296 301.037 159.288 300.701C158.266 300.351 157.23 300.155 157.23 299.287C157.23 298.629 157.86 298.237 158.448 298.237C159.148 298.237 159.554 298.657 159.834 299.063C160.128 299.497 160.156 299.791 160.492 299.791C160.898 299.791 160.912 299.301 160.912 298.979C160.912 298.629 160.828 298.181 160.464 297.915C160.142 297.677 159.484 297.509 158.798 297.509C157.258 297.509 155.998 298.419 155.998 299.777C155.998 302.269 160.044 301.387 160.044 303.221C160.044 303.851 159.484 304.397 158.63 304.397C157.762 304.397 157.258 303.865 156.894 303.361C156.586 302.927 156.432 302.493 156.11 302.493C155.788 302.493 155.732 302.787 155.732 303.095ZM163.818 300.183C163.986 299.147 164.7 298.195 165.82 298.195C166.814 298.195 167.374 298.965 167.374 299.609C167.374 300.253 167.01 300.421 166.198 300.421C166.198 300.421 164.014 300.421 163.916 300.421C163.832 300.421 163.804 300.407 163.804 300.337C163.804 300.323 163.804 300.295 163.818 300.183ZM168.34 303.165C168.004 303.165 167.444 304.117 166.072 304.117C164.588 304.117 163.748 302.801 163.748 301.331V301.261C163.748 301.163 163.804 301.121 163.902 301.121C164 301.121 167.696 301.121 167.696 301.121C168.382 301.107 168.802 300.981 168.802 300.127C168.802 299.147 167.962 297.509 165.946 297.509C163.776 297.509 162.32 299.483 162.32 301.527C162.32 303.445 163.58 305.125 165.722 305.125C167.584 305.125 168.648 303.851 168.648 303.459C168.648 303.263 168.508 303.165 168.34 303.165ZM178.388 301.681C178.388 303.053 177.786 304.397 176.4 304.397C175.028 304.397 174.118 302.787 174.118 300.855C174.118 299.301 174.874 298.209 176.106 298.209C177.674 298.209 178.388 300.071 178.388 301.681ZM176.302 297.509C174.174 297.509 172.69 299.259 172.69 301.373C172.69 303.655 174.132 305.125 176.26 305.125C178.346 305.125 179.816 303.375 179.816 301.275C179.816 299.161 178.528 297.509 176.302 297.509ZM187.807 300.281C187.807 299.301 187.639 298.797 187.331 298.377C186.953 297.859 186.295 297.509 185.497 297.509C184.447 297.509 183.663 298.083 183.229 298.727C183.201 298.769 183.187 298.797 183.159 298.797C183.131 298.797 183.117 298.769 183.117 298.727V297.901C183.117 297.635 182.991 297.509 182.809 297.509C182.725 297.509 182.641 297.537 182.543 297.579C182.179 297.747 181.759 297.887 181.241 297.999C180.919 298.069 180.849 298.167 180.849 298.321C180.849 298.629 181.437 298.559 181.661 298.895C181.787 299.077 181.801 299.329 181.801 299.777V302.507C181.801 303.193 181.759 303.669 181.633 303.949C181.423 304.397 180.919 304.411 180.919 304.705C180.919 304.901 181.087 304.971 181.297 304.971H183.621C183.831 304.971 183.999 304.901 183.999 304.705C183.999 304.453 183.551 304.411 183.313 304.005C183.159 303.739 183.117 303.221 183.117 302.507C183.117 300.351 183.243 299.595 183.775 299.063C184.111 298.727 184.559 298.573 184.979 298.573C185.805 298.573 186.449 299.105 186.449 300.323V302.507C186.449 303.207 186.407 303.711 186.267 303.977C186.043 304.411 185.567 304.425 185.567 304.705C185.567 304.901 185.749 304.971 185.959 304.971H188.311C188.521 304.971 188.703 304.901 188.703 304.705C188.703 304.453 188.255 304.397 188.017 304.033C187.849 303.767 187.807 303.235 187.807 302.507V300.281ZM191.753 302.521V294.877C191.753 294.625 191.627 294.513 191.459 294.513C191.375 294.513 191.291 294.541 191.193 294.583C190.773 294.765 190.381 294.877 189.863 294.989C189.527 295.059 189.471 295.171 189.471 295.311C189.471 295.451 189.611 295.521 189.807 295.591C190.017 295.661 190.185 295.745 190.269 295.885C190.409 296.109 190.409 296.431 190.409 297.033V302.521C190.409 303.207 190.381 303.669 190.241 303.949C190.017 304.397 189.527 304.411 189.527 304.705C189.527 304.901 189.695 304.971 189.905 304.971H192.243C192.453 304.971 192.635 304.901 192.635 304.705C192.635 304.411 192.173 304.439 191.921 303.949C191.781 303.669 191.753 303.221 191.753 302.521ZM200.528 297.663H198.582C198.33 297.663 198.162 297.747 198.162 297.929C198.162 298.307 198.848 298.167 198.848 298.923C198.848 299.287 198.666 299.791 198.33 300.659L197.336 303.179C197.308 303.249 197.294 303.263 197.266 303.263C197.238 303.263 197.238 303.249 197.21 303.179L195.768 299.609C195.6 299.203 195.544 298.923 195.544 298.741C195.544 298.181 196.202 298.251 196.202 297.915C196.202 297.761 196.062 297.663 195.838 297.663H193.556C193.248 297.663 193.122 297.761 193.122 297.929C193.122 298.195 193.43 298.195 193.668 298.377C193.948 298.601 194.144 299.077 194.382 299.707L196.44 304.957C196.454 304.999 196.468 305.041 196.468 305.083C196.468 305.125 196.454 305.167 196.426 305.223C196.146 305.769 195.74 306.511 195.082 306.511C194.41 306.511 194.312 305.923 193.906 305.923C193.57 305.923 193.43 306.259 193.43 306.609C193.43 307.337 193.92 307.673 194.536 307.673C194.858 307.673 195.222 307.575 195.586 307.365C196.524 306.819 197.07 305.727 197.532 304.635C198.022 303.473 199.114 300.771 199.464 299.959C199.688 299.441 199.912 298.951 200.192 298.629C200.556 298.209 200.962 298.223 200.962 297.915C200.962 297.733 200.808 297.663 200.528 297.663ZM207.584 295.171C207.584 294.919 207.444 294.807 207.234 294.807C207.066 294.807 206.842 294.877 206.534 294.961C205.708 295.185 204.994 295.213 204.406 295.297C204.182 295.325 204.14 295.465 204.14 295.661C204.14 295.899 204.238 296.011 204.518 296.011C204.84 296.011 205.232 295.983 205.568 295.983C206.156 295.983 206.184 296.165 206.184 297.131V304.747C206.184 304.901 206.282 304.971 206.436 304.971H207.346C207.486 304.971 207.584 304.901 207.584 304.747V295.171ZM217.182 303.501C216.916 303.501 216.65 304.047 215.922 304.047C215.376 304.047 214.914 303.739 214.816 302.633C214.76 301.989 214.76 301.527 214.76 301.009C214.76 300.589 214.802 299.049 214.802 298.867C214.802 298.755 214.858 298.699 214.97 298.699C215.222 298.699 215.446 298.699 215.726 298.713C216.062 298.727 216.37 298.769 216.622 298.769C216.986 298.769 217.168 298.671 217.224 298.335C217.238 298.237 217.266 298.139 217.266 298.069C217.266 297.887 217.126 297.817 216.818 297.817C216.524 297.817 216.132 297.859 215.838 297.887C215.516 297.915 215.334 297.915 215.124 297.915C214.872 297.915 214.816 297.845 214.816 297.593V296.137C214.816 296.039 214.76 295.983 214.648 295.983H214.074C213.962 295.983 213.92 296.039 213.892 296.151C213.794 296.613 213.738 296.991 213.57 297.271C213.402 297.551 213.094 297.747 212.478 297.915C212.38 297.943 212.338 297.999 212.338 298.083V298.531C212.338 298.643 212.394 298.699 212.492 298.699H213.374C213.472 298.699 213.514 298.741 213.514 298.839C213.514 300.225 213.416 301.485 213.416 302.717C213.416 303.431 213.528 304.005 213.808 304.383C214.144 304.845 214.648 305.125 215.334 305.125C215.992 305.125 216.552 304.859 216.93 304.523C217.224 304.271 217.434 303.949 217.434 303.739C217.434 303.599 217.322 303.501 217.182 303.501ZM225.19 297.663H223.244C222.992 297.663 222.824 297.747 222.824 297.929C222.824 298.307 223.51 298.167 223.51 298.923C223.51 299.287 223.328 299.791 222.992 300.659L221.998 303.179C221.97 303.249 221.956 303.263 221.928 303.263C221.9 303.263 221.9 303.249 221.872 303.179L220.43 299.609C220.262 299.203 220.206 298.923 220.206 298.741C220.206 298.181 220.864 298.251 220.864 297.915C220.864 297.761 220.724 297.663 220.5 297.663H218.218C217.91 297.663 217.784 297.761 217.784 297.929C217.784 298.195 218.092 298.195 218.33 298.377C218.61 298.601 218.806 299.077 219.044 299.707L221.102 304.957C221.116 304.999 221.13 305.041 221.13 305.083C221.13 305.125 221.116 305.167 221.088 305.223C220.808 305.769 220.402 306.511 219.744 306.511C219.072 306.511 218.974 305.923 218.568 305.923C218.232 305.923 218.092 306.259 218.092 306.609C218.092 307.337 218.582 307.673 219.198 307.673C219.52 307.673 219.884 307.575 220.248 307.365C221.186 306.819 221.732 305.727 222.194 304.635C222.684 303.473 223.776 300.771 224.126 299.959C224.35 299.441 224.574 298.951 224.854 298.629C225.218 298.209 225.624 298.223 225.624 297.915C225.624 297.733 225.47 297.663 225.19 297.663ZM230.193 304.425C229.017 304.425 228.191 303.333 228.191 301.387C228.191 299.539 228.961 298.517 230.123 298.517C231.215 298.517 232.167 299.581 232.167 301.457C232.167 303.207 231.439 304.425 230.193 304.425ZM230.669 297.509C229.759 297.509 228.933 297.999 228.373 298.685C228.317 298.755 228.289 298.755 228.261 298.755C228.219 298.755 228.191 298.713 228.191 298.643V297.873C228.191 297.621 228.079 297.509 227.911 297.509C227.827 297.509 227.729 297.537 227.631 297.579C227.211 297.761 226.833 297.873 226.315 297.985C225.993 298.055 225.923 298.153 225.923 298.279C225.923 298.629 226.483 298.517 226.721 298.881C226.861 299.105 226.861 299.371 226.861 299.889V305.223C226.861 305.867 226.833 306.329 226.735 306.595C226.567 307.085 225.979 307.099 225.979 307.407C225.979 307.603 226.161 307.673 226.371 307.673H228.695C228.905 307.673 229.073 307.589 229.073 307.393C229.073 307.085 228.583 307.127 228.359 306.651C228.233 306.385 228.191 305.923 228.191 305.265V304.607C228.191 304.565 228.219 304.537 228.247 304.537C228.359 304.537 229.017 305.125 230.193 305.125C232.391 305.125 233.539 302.899 233.539 300.967C233.539 298.811 232.251 297.509 230.669 297.509ZM236.102 300.183C236.27 299.147 236.984 298.195 238.104 298.195C239.098 298.195 239.658 298.965 239.658 299.609C239.658 300.253 239.294 300.421 238.482 300.421C238.482 300.421 236.298 300.421 236.2 300.421C236.116 300.421 236.088 300.407 236.088 300.337C236.088 300.323 236.088 300.295 236.102 300.183ZM240.624 303.165C240.288 303.165 239.728 304.117 238.356 304.117C236.872 304.117 236.032 302.801 236.032 301.331V301.261C236.032 301.163 236.088 301.121 236.186 301.121C236.284 301.121 239.98 301.121 239.98 301.121C240.666 301.107 241.086 300.981 241.086 300.127C241.086 299.147 240.246 297.509 238.23 297.509C236.06 297.509 234.604 299.483 234.604 301.527C234.604 303.445 235.864 305.125 238.006 305.125C239.868 305.125 240.932 303.851 240.932 303.459C240.932 303.263 240.792 303.165 240.624 303.165ZM166.196 321.681C166.196 323.053 165.594 324.397 164.208 324.397C162.836 324.397 161.926 322.787 161.926 320.855C161.926 319.301 162.682 318.209 163.914 318.209C165.482 318.209 166.196 320.071 166.196 321.681ZM164.11 317.509C161.982 317.509 160.498 319.259 160.498 321.373C160.498 323.655 161.94 325.125 164.068 325.125C166.154 325.125 167.624 323.375 167.624 321.275C167.624 319.161 166.336 317.509 164.11 317.509ZM173.725 314.751C173.515 314.597 173.207 314.513 172.829 314.513C171.779 314.513 169.819 315.087 169.693 317.775C169.693 317.873 169.651 317.915 169.539 317.915C169.371 317.915 168.671 317.915 168.671 317.915C168.559 317.915 168.503 317.957 168.503 318.069V318.545C168.503 318.657 168.573 318.699 168.671 318.699C168.671 318.699 169.455 318.699 169.539 318.699C169.637 318.699 169.679 318.727 169.679 318.811V322.521C169.679 323.179 169.651 323.613 169.539 323.893C169.301 324.453 168.797 324.383 168.797 324.705C168.797 324.901 168.965 324.971 169.189 324.971H171.499C171.709 324.971 171.891 324.901 171.891 324.705C171.891 324.397 171.401 324.453 171.177 323.949C171.051 323.669 171.009 323.221 171.009 322.521V318.867C171.009 318.741 171.051 318.699 171.191 318.699C171.415 318.699 171.653 318.699 171.919 318.713C172.255 318.727 172.535 318.755 172.801 318.755C173.137 318.755 173.347 318.727 173.417 318.321C173.431 318.237 173.459 318.125 173.459 318.041C173.459 317.817 173.207 317.817 173.067 317.817C172.773 317.817 172.395 317.887 172.059 317.901C171.723 317.915 171.401 317.915 171.149 317.915C171.051 317.915 171.009 317.873 171.009 317.775C171.009 316.851 171.093 315.339 172.157 315.339C172.983 315.339 173.263 316.305 173.697 316.305C173.991 316.305 174.075 316.081 174.075 315.717C174.075 315.451 174.033 314.989 173.725 314.751ZM183.297 323.459C183.297 323.319 183.199 323.193 183.045 323.193C182.723 323.193 182.247 324.131 181.001 324.131C179.405 324.131 178.691 322.647 178.691 321.107C178.691 319.329 179.615 318.265 180.707 318.265C181.449 318.265 181.883 318.783 182.093 319.133C182.303 319.483 182.373 319.819 182.695 319.819C182.961 319.819 183.101 319.623 183.101 318.965C183.101 318.629 183.045 318.237 182.835 318.027C182.471 317.649 181.659 317.509 181.099 317.509C178.761 317.509 177.291 319.581 177.291 321.751C177.291 323.851 178.705 325.125 180.483 325.125C182.331 325.125 183.297 323.837 183.297 323.459ZM189.876 321.681C189.876 323.053 189.274 324.397 187.888 324.397C186.516 324.397 185.606 322.787 185.606 320.855C185.606 319.301 186.362 318.209 187.594 318.209C189.162 318.209 189.876 320.071 189.876 321.681ZM187.79 317.509C185.662 317.509 184.178 319.259 184.178 321.373C184.178 323.655 185.62 325.125 187.748 325.125C189.834 325.125 191.304 323.375 191.304 321.275C191.304 319.161 190.016 317.509 187.79 317.509ZM199.296 320.281C199.296 319.301 199.128 318.797 198.82 318.377C198.442 317.859 197.784 317.509 196.986 317.509C195.936 317.509 195.152 318.083 194.718 318.727C194.69 318.769 194.676 318.797 194.648 318.797C194.62 318.797 194.606 318.769 194.606 318.727V317.901C194.606 317.635 194.48 317.509 194.298 317.509C194.214 317.509 194.13 317.537 194.032 317.579C193.668 317.747 193.248 317.887 192.73 317.999C192.408 318.069 192.338 318.167 192.338 318.321C192.338 318.629 192.926 318.559 193.15 318.895C193.276 319.077 193.29 319.329 193.29 319.777V322.507C193.29 323.193 193.248 323.669 193.122 323.949C192.912 324.397 192.408 324.411 192.408 324.705C192.408 324.901 192.576 324.971 192.786 324.971H195.11C195.32 324.971 195.488 324.901 195.488 324.705C195.488 324.453 195.04 324.411 194.802 324.005C194.648 323.739 194.606 323.221 194.606 322.507C194.606 320.351 194.732 319.595 195.264 319.063C195.6 318.727 196.048 318.573 196.468 318.573C197.294 318.573 197.938 319.105 197.938 320.323V322.507C197.938 323.207 197.896 323.711 197.756 323.977C197.532 324.411 197.056 324.425 197.056 324.705C197.056 324.901 197.238 324.971 197.448 324.971H199.8C200.01 324.971 200.192 324.901 200.192 324.705C200.192 324.453 199.744 324.397 199.506 324.033C199.338 323.767 199.296 323.235 199.296 322.507V320.281ZM205.677 323.501C205.411 323.501 205.145 324.047 204.417 324.047C203.871 324.047 203.409 323.739 203.311 322.633C203.255 321.989 203.255 321.527 203.255 321.009C203.255 320.589 203.297 319.049 203.297 318.867C203.297 318.755 203.353 318.699 203.465 318.699C203.717 318.699 203.941 318.699 204.221 318.713C204.557 318.727 204.865 318.769 205.117 318.769C205.481 318.769 205.663 318.671 205.719 318.335C205.733 318.237 205.761 318.139 205.761 318.069C205.761 317.887 205.621 317.817 205.313 317.817C205.019 317.817 204.627 317.859 204.333 317.887C204.011 317.915 203.829 317.915 203.619 317.915C203.367 317.915 203.311 317.845 203.311 317.593V316.137C203.311 316.039 203.255 315.983 203.143 315.983H202.569C202.457 315.983 202.415 316.039 202.387 316.151C202.289 316.613 202.233 316.991 202.065 317.271C201.897 317.551 201.589 317.747 200.973 317.915C200.875 317.943 200.833 317.999 200.833 318.083V318.531C200.833 318.643 200.889 318.699 200.987 318.699H201.869C201.967 318.699 202.009 318.741 202.009 318.839C202.009 320.225 201.911 321.485 201.911 322.717C201.911 323.431 202.023 324.005 202.303 324.383C202.639 324.845 203.143 325.125 203.829 325.125C204.487 325.125 205.047 324.859 205.425 324.523C205.719 324.271 205.929 323.949 205.929 323.739C205.929 323.599 205.817 323.501 205.677 323.501ZM208.157 320.183C208.325 319.147 209.039 318.195 210.159 318.195C211.153 318.195 211.713 318.965 211.713 319.609C211.713 320.253 211.349 320.421 210.537 320.421C210.537 320.421 208.353 320.421 208.255 320.421C208.171 320.421 208.143 320.407 208.143 320.337C208.143 320.323 208.143 320.295 208.157 320.183ZM212.679 323.165C212.343 323.165 211.783 324.117 210.411 324.117C208.927 324.117 208.087 322.801 208.087 321.331V321.261C208.087 321.163 208.143 321.121 208.241 321.121C208.339 321.121 212.035 321.121 212.035 321.121C212.721 321.107 213.141 320.981 213.141 320.127C213.141 319.147 212.301 317.509 210.285 317.509C208.115 317.509 206.659 319.483 206.659 321.527C206.659 323.445 207.919 325.125 210.061 325.125C211.923 325.125 212.987 323.851 212.987 323.459C212.987 323.263 212.847 323.165 212.679 323.165ZM221.065 320.281C221.065 319.301 220.897 318.797 220.589 318.377C220.211 317.859 219.553 317.509 218.755 317.509C217.705 317.509 216.921 318.083 216.487 318.727C216.459 318.769 216.445 318.797 216.417 318.797C216.389 318.797 216.375 318.769 216.375 318.727V317.901C216.375 317.635 216.249 317.509 216.067 317.509C215.983 317.509 215.899 317.537 215.801 317.579C215.437 317.747 215.017 317.887 214.499 317.999C214.177 318.069 214.107 318.167 214.107 318.321C214.107 318.629 214.695 318.559 214.919 318.895C215.045 319.077 215.059 319.329 215.059 319.777V322.507C215.059 323.193 215.017 323.669 214.891 323.949C214.681 324.397 214.177 324.411 214.177 324.705C214.177 324.901 214.345 324.971 214.555 324.971H216.879C217.089 324.971 217.257 324.901 217.257 324.705C217.257 324.453 216.809 324.411 216.571 324.005C216.417 323.739 216.375 323.221 216.375 322.507C216.375 320.351 216.501 319.595 217.033 319.063C217.369 318.727 217.817 318.573 218.237 318.573C219.063 318.573 219.707 319.105 219.707 320.323V322.507C219.707 323.207 219.665 323.711 219.525 323.977C219.301 324.411 218.825 324.425 218.825 324.705C218.825 324.901 219.007 324.971 219.217 324.971H221.569C221.779 324.971 221.961 324.901 221.961 324.705C221.961 324.453 221.513 324.397 221.275 324.033C221.107 323.767 221.065 323.235 221.065 322.507V320.281ZM227.446 323.501C227.18 323.501 226.914 324.047 226.186 324.047C225.64 324.047 225.178 323.739 225.08 322.633C225.024 321.989 225.024 321.527 225.024 321.009C225.024 320.589 225.066 319.049 225.066 318.867C225.066 318.755 225.122 318.699 225.234 318.699C225.486 318.699 225.71 318.699 225.99 318.713C226.326 318.727 226.634 318.769 226.886 318.769C227.25 318.769 227.432 318.671 227.488 318.335C227.502 318.237 227.53 318.139 227.53 318.069C227.53 317.887 227.39 317.817 227.082 317.817C226.788 317.817 226.396 317.859 226.102 317.887C225.78 317.915 225.598 317.915 225.388 317.915C225.136 317.915 225.08 317.845 225.08 317.593V316.137C225.08 316.039 225.024 315.983 224.912 315.983H224.338C224.226 315.983 224.184 316.039 224.156 316.151C224.058 316.613 224.002 316.991 223.834 317.271C223.666 317.551 223.358 317.747 222.742 317.915C222.644 317.943 222.602 317.999 222.602 318.083V318.531C222.602 318.643 222.658 318.699 222.756 318.699H223.638C223.736 318.699 223.778 318.741 223.778 318.839C223.778 320.225 223.68 321.485 223.68 322.717C223.68 323.431 223.792 324.005 224.072 324.383C224.408 324.845 224.912 325.125 225.598 325.125C226.256 325.125 226.816 324.859 227.194 324.523C227.488 324.271 227.698 323.949 227.698 323.739C227.698 323.599 227.586 323.501 227.446 323.501Z" fill="#004C12"/>
<rect x="271" y="0.970703" width="472" height="68" rx="20" fill="#FFF8E0"/>
<path d="M364.107 33.7067C363.351 32.9367 362.063 32.3767 359.977 32.3767C359.907 32.3767 359.893 32.3347 359.893 32.2927C359.893 32.2927 359.893 32.2787 359.907 32.1947L360.285 30.3187C360.299 30.2487 360.327 30.2347 360.397 30.2347H363.701C364.023 30.2347 364.177 30.2207 364.289 30.1367C364.471 29.9967 364.471 29.7587 364.541 29.2407C364.569 29.0027 364.611 28.8207 364.611 28.6947C364.611 28.4987 364.513 28.4007 364.345 28.4007C364.079 28.4007 364.037 28.7647 363.687 28.8767C363.407 28.9607 362.931 28.9747 362.133 28.9747C362.133 28.9747 360.075 28.9747 359.991 28.9747C359.907 28.9747 359.865 29.0027 359.851 29.0867L358.983 33.3847C358.969 33.4547 358.969 33.4687 358.969 33.4827C358.969 33.5527 359.011 33.5807 359.095 33.5807H359.179C361.601 33.5807 362.609 34.1687 363.211 34.7707C363.645 35.2047 363.869 35.7927 363.869 36.3527C363.869 37.4867 363.085 38.3827 361.867 38.3827C360.915 38.3827 360.243 37.8367 359.893 37.2627C359.459 36.5487 359.417 36.0307 358.983 36.0307C358.647 36.0307 358.549 36.2687 358.549 36.8147C358.549 37.2347 358.605 37.8227 358.829 38.1587C359.249 38.7887 360.327 39.1247 361.391 39.1247C363.687 39.1247 365.003 37.5707 365.003 35.8767C365.003 35.1067 364.723 34.3367 364.107 33.7067ZM371.742 31.3407C371.742 32.5027 370.972 33.2167 370.09 33.2167C369.348 33.2167 368.34 32.7127 368.34 31.3547C368.34 30.2207 369.054 29.5207 370.076 29.5207C371.182 29.5207 371.742 30.3327 371.742 31.3407ZM367.934 36.3527C367.934 34.7987 369.124 34.0287 370.076 34.0287C371.028 34.0287 372.148 34.7847 372.148 36.2267C372.148 37.6687 371.084 38.4247 370.048 38.4247C368.802 38.4247 367.934 37.5007 367.934 36.3527ZM373.24 31.1587C373.24 29.6887 371.854 28.8067 370.062 28.8067C368.2 28.8067 366.828 29.8987 366.828 31.3827C366.828 32.5727 367.794 33.3847 368.732 33.6787C368.816 33.7067 368.844 33.7347 368.844 33.7767C368.844 33.8327 368.802 33.8747 368.704 33.8887C367.416 34.1547 366.422 35.0087 366.422 36.3807C366.422 37.9767 367.948 39.1247 370.006 39.1247C372.162 39.1247 373.674 37.8507 373.674 36.1847C373.674 34.7287 372.54 33.8747 371.378 33.5947C371.252 33.5667 371.224 33.5387 371.224 33.4967C371.224 33.4407 371.266 33.4127 371.378 33.3847C372.442 33.0627 373.24 32.2927 373.24 31.1587ZM378.404 31.4947C378.404 32.9227 378.012 33.6367 377.368 33.6367C376.738 33.6367 376.304 32.6847 376.304 31.4947C376.304 30.1927 376.64 29.3527 377.326 29.3527C377.956 29.3527 378.404 30.2627 378.404 31.4947ZM379.552 31.4947C379.552 29.9267 378.768 28.8207 377.354 28.8207C376.08 28.8207 375.156 29.9967 375.156 31.4947C375.156 32.9367 375.8 34.1827 377.354 34.1827C378.614 34.1827 379.552 33.0347 379.552 31.4947ZM383.892 36.4367C383.892 37.8647 383.5 38.5787 382.856 38.5787C382.226 38.5787 381.792 37.6267 381.792 36.4367C381.792 35.1347 382.128 34.2947 382.814 34.2947C383.444 34.2947 383.892 35.2047 383.892 36.4367ZM385.04 36.4367C385.04 34.8687 384.256 33.7627 382.842 33.7627C381.568 33.7627 380.644 34.9387 380.644 36.4367C380.644 37.8787 381.288 39.1247 382.842 39.1247C384.102 39.1247 385.04 37.9767 385.04 36.4367ZM376.668 38.9707H377.522L383.626 28.9747H382.772L376.668 38.9707ZM394.8 35.6807C394.8 37.0527 394.198 38.3967 392.812 38.3967C391.44 38.3967 390.53 36.7867 390.53 34.8547C390.53 33.3007 391.286 32.2087 392.518 32.2087C394.086 32.2087 394.8 34.0707 394.8 35.6807ZM392.714 31.5087C390.586 31.5087 389.102 33.2587 389.102 35.3727C389.102 37.6547 390.544 39.1247 392.672 39.1247C394.758 39.1247 396.228 37.3747 396.228 35.2747C396.228 33.1607 394.94 31.5087 392.714 31.5087ZM402.33 28.7507C402.12 28.5967 401.812 28.5127 401.434 28.5127C400.384 28.5127 398.424 29.0867 398.298 31.7747C398.298 31.8727 398.256 31.9147 398.144 31.9147C397.976 31.9147 397.276 31.9147 397.276 31.9147C397.164 31.9147 397.108 31.9567 397.108 32.0687V32.5447C397.108 32.6567 397.178 32.6987 397.276 32.6987C397.276 32.6987 398.06 32.6987 398.144 32.6987C398.242 32.6987 398.284 32.7267 398.284 32.8107V36.5207C398.284 37.1787 398.256 37.6127 398.144 37.8927C397.906 38.4527 397.402 38.3827 397.402 38.7047C397.402 38.9007 397.57 38.9707 397.794 38.9707H400.104C400.314 38.9707 400.496 38.9007 400.496 38.7047C400.496 38.3967 400.006 38.4527 399.782 37.9487C399.656 37.6687 399.614 37.2207 399.614 36.5207V32.8667C399.614 32.7407 399.656 32.6987 399.796 32.6987C400.02 32.6987 400.258 32.6987 400.524 32.7127C400.86 32.7267 401.14 32.7547 401.406 32.7547C401.742 32.7547 401.952 32.7267 402.022 32.3207C402.036 32.2367 402.064 32.1247 402.064 32.0407C402.064 31.8167 401.812 31.8167 401.672 31.8167C401.378 31.8167 401 31.8867 400.664 31.9007C400.328 31.9147 400.006 31.9147 399.754 31.9147C399.656 31.9147 399.614 31.8727 399.614 31.7747C399.614 30.8507 399.698 29.3387 400.762 29.3387C401.588 29.3387 401.868 30.3047 402.302 30.3047C402.596 30.3047 402.68 30.0807 402.68 29.7167C402.68 29.4507 402.638 28.9887 402.33 28.7507ZM411.901 37.4587C411.901 37.3187 411.803 37.1927 411.649 37.1927C411.327 37.1927 410.851 38.1307 409.605 38.1307C408.009 38.1307 407.295 36.6467 407.295 35.1067C407.295 33.3287 408.219 32.2647 409.311 32.2647C410.053 32.2647 410.487 32.7827 410.697 33.1327C410.907 33.4827 410.977 33.8187 411.299 33.8187C411.565 33.8187 411.705 33.6227 411.705 32.9647C411.705 32.6287 411.649 32.2367 411.439 32.0267C411.075 31.6487 410.263 31.5087 409.703 31.5087C407.365 31.5087 405.895 33.5807 405.895 35.7507C405.895 37.8507 407.309 39.1247 409.087 39.1247C410.935 39.1247 411.901 37.8367 411.901 37.4587ZM417.011 31.5087C416.115 31.5087 415.359 32.3907 415.065 32.9927C415.051 33.0207 415.037 33.0627 415.009 33.0627C414.981 33.0627 414.981 33.0347 414.981 33.0067V31.9007C414.981 31.6487 414.869 31.5087 414.659 31.5087C414.561 31.5087 414.449 31.5367 414.323 31.5927C413.917 31.7747 413.637 31.8727 413.175 31.9707C412.881 32.0267 412.797 32.1247 412.797 32.2787C412.797 32.5867 413.343 32.5307 413.595 32.8947C413.721 33.0767 413.777 33.4127 413.777 34.0147V36.5207C413.777 37.2067 413.735 37.6547 413.623 37.9207C413.399 38.4247 412.895 38.4107 412.895 38.7047C412.895 38.9007 413.063 38.9707 413.287 38.9707H415.597C415.821 38.9707 415.989 38.9007 415.989 38.7047C415.989 38.3967 415.527 38.4527 415.275 37.9487C415.135 37.6687 415.107 37.2067 415.107 36.5207C415.107 34.4347 415.345 33.7767 415.681 33.2727C415.919 32.9087 416.213 32.7827 416.479 32.7827C416.899 32.7827 417.081 33.0907 417.417 33.0907C417.781 33.0907 417.893 32.7827 417.893 32.4467C417.893 31.8867 417.557 31.5087 417.011 31.5087ZM419.595 34.1827C419.763 33.1467 420.477 32.1947 421.597 32.1947C422.591 32.1947 423.151 32.9647 423.151 33.6087C423.151 34.2527 422.787 34.4207 421.975 34.4207C421.975 34.4207 419.791 34.4207 419.693 34.4207C419.609 34.4207 419.581 34.4067 419.581 34.3367C419.581 34.3227 419.581 34.2947 419.595 34.1827ZM424.117 37.1647C423.781 37.1647 423.221 38.1167 421.849 38.1167C420.365 38.1167 419.525 36.8007 419.525 35.3307V35.2607C419.525 35.1627 419.581 35.1207 419.679 35.1207C419.777 35.1207 423.473 35.1207 423.473 35.1207C424.159 35.1067 424.579 34.9807 424.579 34.1267C424.579 33.1467 423.739 31.5087 421.723 31.5087C419.553 31.5087 418.097 33.4827 418.097 35.5267C418.097 37.4447 419.357 39.1247 421.499 39.1247C423.361 39.1247 424.425 37.8507 424.425 37.4587C424.425 37.2627 424.285 37.1647 424.117 37.1647ZM429.787 35.2607C429.787 36.1147 429.773 36.7307 429.493 37.3187C429.157 38.0047 428.527 38.3127 427.981 38.3127C427.239 38.3127 426.861 37.8087 426.861 37.2487C426.861 36.8567 427.057 36.4227 427.561 36.0867C428.233 35.6387 429.157 35.4007 429.647 35.0227C429.703 34.9807 429.717 34.9667 429.745 34.9667C429.773 34.9667 429.787 34.9947 429.787 35.0227V35.2607ZM431.593 38.1167C431.313 38.1167 431.145 37.8927 431.145 37.4027C431.145 36.2827 431.187 34.9947 431.187 33.9027C431.187 32.5167 430.263 31.5087 428.471 31.5087C427.673 31.5087 426.539 31.7047 426.161 32.1947C425.993 32.4047 425.923 32.8527 425.923 33.2167C425.923 33.5807 425.979 33.9027 426.315 33.9027C426.623 33.9027 426.665 33.6507 426.945 33.2587C427.295 32.7687 427.729 32.2227 428.569 32.2227C429.325 32.2227 429.787 32.6987 429.787 33.3707C429.787 34.1267 429.171 34.5327 428.611 34.7847C427.841 35.1487 426.973 35.3027 426.245 35.7927C425.657 36.1707 425.377 36.7587 425.377 37.3187C425.377 38.2847 426.203 39.1247 427.561 39.1247C428.429 39.1247 429.297 38.7607 429.801 38.0047C429.829 37.9627 429.829 37.9487 429.857 37.9487C429.885 37.9487 429.885 37.9907 429.885 38.0187C429.969 38.8447 430.487 39.1247 430.949 39.1247C431.565 39.1247 431.999 38.6067 431.999 38.3407C431.999 38.2007 431.887 38.1167 431.761 38.1167H431.593ZM437.449 37.5007C437.183 37.5007 436.917 38.0467 436.189 38.0467C435.643 38.0467 435.181 37.7387 435.083 36.6327C435.027 35.9887 435.027 35.5267 435.027 35.0087C435.027 34.5887 435.069 33.0487 435.069 32.8667C435.069 32.7547 435.125 32.6987 435.237 32.6987C435.489 32.6987 435.713 32.6987 435.993 32.7127C436.329 32.7267 436.637 32.7687 436.889 32.7687C437.253 32.7687 437.435 32.6707 437.491 32.3347C437.505 32.2367 437.533 32.1387 437.533 32.0687C437.533 31.8867 437.393 31.8167 437.085 31.8167C436.791 31.8167 436.399 31.8587 436.105 31.8867C435.783 31.9147 435.601 31.9147 435.391 31.9147C435.139 31.9147 435.083 31.8447 435.083 31.5927V30.1367C435.083 30.0387 435.027 29.9827 434.915 29.9827H434.341C434.229 29.9827 434.187 30.0387 434.159 30.1507C434.061 30.6127 434.005 30.9907 433.837 31.2707C433.669 31.5507 433.361 31.7467 432.745 31.9147C432.647 31.9427 432.605 31.9987 432.605 32.0827V32.5307C432.605 32.6427 432.661 32.6987 432.759 32.6987H433.641C433.739 32.6987 433.781 32.7407 433.781 32.8387C433.781 34.2247 433.683 35.4847 433.683 36.7167C433.683 37.4307 433.795 38.0047 434.075 38.3827C434.411 38.8447 434.915 39.1247 435.601 39.1247C436.259 39.1247 436.819 38.8587 437.197 38.5227C437.491 38.2707 437.701 37.9487 437.701 37.7387C437.701 37.5987 437.589 37.5007 437.449 37.5007ZM444.129 35.6807C444.129 37.0527 443.527 38.3967 442.141 38.3967C440.769 38.3967 439.859 36.7867 439.859 34.8547C439.859 33.3007 440.615 32.2087 441.847 32.2087C443.415 32.2087 444.129 34.0707 444.129 35.6807ZM442.043 31.5087C439.915 31.5087 438.431 33.2587 438.431 35.3727C438.431 37.6547 439.873 39.1247 442.001 39.1247C444.087 39.1247 445.557 37.3747 445.557 35.2747C445.557 33.1607 444.269 31.5087 442.043 31.5087ZM450.805 31.5087C449.909 31.5087 449.153 32.3907 448.859 32.9927C448.845 33.0207 448.831 33.0627 448.803 33.0627C448.775 33.0627 448.775 33.0347 448.775 33.0067V31.9007C448.775 31.6487 448.663 31.5087 448.453 31.5087C448.355 31.5087 448.243 31.5367 448.117 31.5927C447.711 31.7747 447.431 31.8727 446.969 31.9707C446.675 32.0267 446.591 32.1247 446.591 32.2787C446.591 32.5867 447.137 32.5307 447.389 32.8947C447.515 33.0767 447.571 33.4127 447.571 34.0147V36.5207C447.571 37.2067 447.529 37.6547 447.417 37.9207C447.193 38.4247 446.689 38.4107 446.689 38.7047C446.689 38.9007 446.857 38.9707 447.081 38.9707H449.391C449.615 38.9707 449.783 38.9007 449.783 38.7047C449.783 38.3967 449.321 38.4527 449.069 37.9487C448.929 37.6687 448.901 37.2067 448.901 36.5207C448.901 34.4347 449.139 33.7767 449.475 33.2727C449.713 32.9087 450.007 32.7827 450.273 32.7827C450.693 32.7827 450.875 33.0907 451.211 33.0907C451.575 33.0907 451.687 32.7827 451.687 32.4467C451.687 31.8867 451.351 31.5087 450.805 31.5087ZM452.027 37.0947C452.027 37.5287 452.111 38.1447 452.405 38.4387C452.769 38.8027 453.679 39.1247 454.659 39.1247C456.409 39.1247 457.585 38.0747 457.585 36.7867C457.585 35.5127 456.591 35.0367 455.583 34.7007C454.561 34.3507 453.525 34.1547 453.525 33.2867C453.525 32.6287 454.155 32.2367 454.743 32.2367C455.443 32.2367 455.849 32.6567 456.129 33.0627C456.423 33.4967 456.451 33.7907 456.787 33.7907C457.193 33.7907 457.207 33.3007 457.207 32.9787C457.207 32.6287 457.123 32.1807 456.759 31.9147C456.437 31.6767 455.779 31.5087 455.093 31.5087C453.553 31.5087 452.293 32.4187 452.293 33.7767C452.293 36.2687 456.339 35.3867 456.339 37.2207C456.339 37.8507 455.779 38.3967 454.925 38.3967C454.057 38.3967 453.553 37.8647 453.189 37.3607C452.881 36.9267 452.727 36.4927 452.405 36.4927C452.083 36.4927 452.027 36.7867 452.027 37.0947ZM465.64 38.4247C464.464 38.4247 463.638 37.3327 463.638 35.3867C463.638 33.5387 464.408 32.5167 465.57 32.5167C466.662 32.5167 467.614 33.5807 467.614 35.4567C467.614 37.2067 466.886 38.4247 465.64 38.4247ZM466.116 31.5087C465.206 31.5087 464.38 31.9987 463.82 32.6847C463.764 32.7547 463.736 32.7547 463.708 32.7547C463.666 32.7547 463.638 32.7127 463.638 32.6427V31.8727C463.638 31.6207 463.526 31.5087 463.358 31.5087C463.274 31.5087 463.176 31.5367 463.078 31.5787C462.658 31.7607 462.28 31.8727 461.762 31.9847C461.44 32.0547 461.37 32.1527 461.37 32.2787C461.37 32.6287 461.93 32.5167 462.168 32.8807C462.308 33.1047 462.308 33.3707 462.308 33.8887V39.2227C462.308 39.8667 462.28 40.3287 462.182 40.5947C462.014 41.0847 461.426 41.0987 461.426 41.4067C461.426 41.6027 461.608 41.6727 461.818 41.6727H464.142C464.352 41.6727 464.52 41.5887 464.52 41.3927C464.52 41.0847 464.03 41.1267 463.806 40.6507C463.68 40.3847 463.638 39.9227 463.638 39.2647V38.6067C463.638 38.5647 463.666 38.5367 463.694 38.5367C463.806 38.5367 464.464 39.1247 465.64 39.1247C467.838 39.1247 468.986 36.8987 468.986 34.9667C468.986 32.8107 467.698 31.5087 466.116 31.5087ZM474.225 31.5087C473.329 31.5087 472.573 32.3907 472.279 32.9927C472.265 33.0207 472.251 33.0627 472.223 33.0627C472.195 33.0627 472.195 33.0347 472.195 33.0067V31.9007C472.195 31.6487 472.083 31.5087 471.873 31.5087C471.775 31.5087 471.663 31.5367 471.537 31.5927C471.131 31.7747 470.851 31.8727 470.389 31.9707C470.095 32.0267 470.011 32.1247 470.011 32.2787C470.011 32.5867 470.557 32.5307 470.809 32.8947C470.935 33.0767 470.991 33.4127 470.991 34.0147V36.5207C470.991 37.2067 470.949 37.6547 470.837 37.9207C470.613 38.4247 470.109 38.4107 470.109 38.7047C470.109 38.9007 470.277 38.9707 470.501 38.9707H472.811C473.035 38.9707 473.203 38.9007 473.203 38.7047C473.203 38.3967 472.741 38.4527 472.489 37.9487C472.349 37.6687 472.321 37.2067 472.321 36.5207C472.321 34.4347 472.559 33.7767 472.895 33.2727C473.133 32.9087 473.427 32.7827 473.693 32.7827C474.113 32.7827 474.295 33.0907 474.631 33.0907C474.995 33.0907 475.107 32.7827 475.107 32.4467C475.107 31.8867 474.771 31.5087 474.225 31.5087ZM481.01 35.6807C481.01 37.0527 480.408 38.3967 479.022 38.3967C477.65 38.3967 476.74 36.7867 476.74 34.8547C476.74 33.3007 477.496 32.2087 478.728 32.2087C480.296 32.2087 481.01 34.0707 481.01 35.6807ZM478.924 31.5087C476.796 31.5087 475.312 33.2587 475.312 35.3727C475.312 37.6547 476.754 39.1247 478.882 39.1247C480.968 39.1247 482.438 37.3747 482.438 35.2747C482.438 33.1607 481.15 31.5087 478.924 31.5087ZM486.928 38.1307C485.71 38.1307 484.898 36.8287 484.898 35.1767C484.898 33.7907 485.402 32.2227 486.872 32.2227C488.048 32.2227 488.874 33.3147 488.874 35.2467C488.874 36.9827 488.16 38.1307 486.928 38.1307ZM490.204 28.8767C490.204 28.6247 490.078 28.5127 489.91 28.5127C489.798 28.5127 489.714 28.5547 489.602 28.5967C489.182 28.7647 488.846 28.8767 488.328 28.9887C487.992 29.0587 487.936 29.1567 487.936 29.2967C487.936 29.6047 488.454 29.5347 488.72 29.8707C488.86 30.0527 488.874 30.3467 488.874 30.7107V32.0407C488.874 32.0827 488.86 32.1107 488.818 32.1107C488.79 32.1107 488.762 32.0967 488.72 32.0687C488.174 31.7187 487.544 31.5087 486.872 31.5087C484.786 31.5087 483.526 33.6087 483.526 35.6807C483.526 38.1027 485.052 39.1247 486.396 39.1247C487.306 39.1247 488.132 38.6347 488.692 37.9487C488.734 37.9067 488.762 37.8927 488.79 37.8927C488.832 37.8927 488.874 37.9347 488.874 38.0047V38.7607C488.874 39.0267 488.986 39.1247 489.168 39.1247C489.252 39.1247 489.336 39.1107 489.49 39.0407C489.826 38.9007 490.218 38.7747 490.75 38.6487C491.072 38.5787 491.142 38.4667 491.142 38.3267C491.142 38.0187 490.512 38.0887 490.302 37.7107C490.218 37.5427 490.204 37.2627 490.204 36.8987V28.8767ZM498.915 37.7667C498.775 37.5427 498.775 37.2207 498.775 36.6187V31.8727C498.775 31.6207 498.649 31.4947 498.467 31.4947C498.383 31.4947 498.299 31.5227 498.201 31.5647C497.823 31.7327 497.431 31.8447 496.885 31.9707C496.577 32.0407 496.507 32.1387 496.507 32.2927C496.507 32.6287 497.067 32.5307 497.305 32.8807C497.445 33.0907 497.445 33.4687 497.445 34.1407C497.445 36.2827 497.277 37.0667 496.759 37.5847C496.423 37.9207 495.989 38.0607 495.583 38.0607C494.575 38.0607 494.127 37.3047 494.127 36.3387V31.8727C494.127 31.6207 494.001 31.5087 493.819 31.5087C493.707 31.5087 493.637 31.5367 493.497 31.5927C493.119 31.7467 492.797 31.8447 492.237 31.9707C491.957 32.0267 491.859 32.1247 491.859 32.2647C491.859 32.6287 492.433 32.5307 492.657 32.8807C492.797 33.0907 492.797 33.4127 492.797 34.0147V36.3667C492.797 37.2067 492.923 37.8647 493.315 38.3407C493.749 38.8727 494.365 39.1247 495.065 39.1247C496.045 39.1247 496.871 38.6207 497.333 37.9067C497.361 37.8647 497.375 37.8367 497.403 37.8367C497.431 37.8367 497.445 37.8507 497.445 37.8787C497.445 37.9207 497.445 38.7467 497.445 38.7467C497.445 39.0127 497.557 39.1247 497.753 39.1247C497.823 39.1247 497.907 39.1107 498.047 39.0547C498.397 38.9147 498.789 38.7887 499.335 38.6627C499.615 38.6067 499.713 38.5087 499.713 38.3407C499.713 38.0187 499.111 38.0747 498.915 37.7667ZM506.67 37.4587C506.67 37.3187 506.572 37.1927 506.418 37.1927C506.096 37.1927 505.62 38.1307 504.374 38.1307C502.778 38.1307 502.064 36.6467 502.064 35.1067C502.064 33.3287 502.988 32.2647 504.08 32.2647C504.822 32.2647 505.256 32.7827 505.466 33.1327C505.676 33.4827 505.746 33.8187 506.068 33.8187C506.334 33.8187 506.474 33.6227 506.474 32.9647C506.474 32.6287 506.418 32.2367 506.208 32.0267C505.844 31.6487 505.032 31.5087 504.472 31.5087C502.134 31.5087 500.664 33.5807 500.664 35.7507C500.664 37.8507 502.078 39.1247 503.856 39.1247C505.704 39.1247 506.67 37.8367 506.67 37.4587ZM509.035 34.1827C509.203 33.1467 509.917 32.1947 511.037 32.1947C512.031 32.1947 512.591 32.9647 512.591 33.6087C512.591 34.2527 512.227 34.4207 511.415 34.4207C511.415 34.4207 509.231 34.4207 509.133 34.4207C509.049 34.4207 509.021 34.4067 509.021 34.3367C509.021 34.3227 509.021 34.2947 509.035 34.1827ZM513.557 37.1647C513.221 37.1647 512.661 38.1167 511.289 38.1167C509.805 38.1167 508.965 36.8007 508.965 35.3307V35.2607C508.965 35.1627 509.021 35.1207 509.119 35.1207C509.217 35.1207 512.913 35.1207 512.913 35.1207C513.599 35.1067 514.019 34.9807 514.019 34.1267C514.019 33.1467 513.179 31.5087 511.163 31.5087C508.993 31.5087 507.537 33.4827 507.537 35.5267C507.537 37.4447 508.797 39.1247 510.939 39.1247C512.801 39.1247 513.865 37.8507 513.865 37.4587C513.865 37.2627 513.725 37.1647 513.557 37.1647ZM518.762 29.5767C518.44 29.8567 518.356 30.4027 518.356 30.8227C518.356 31.2147 518.398 31.6207 518.734 31.6207C519.056 31.6207 519.182 31.2007 519.448 30.7387C519.784 30.1647 520.288 29.5347 521.254 29.5347C522.36 29.5347 523.004 30.4447 523.004 31.3967C523.004 32.0127 522.724 32.6427 522.136 33.2027C521.366 33.9587 520.456 34.4767 519.49 35.3587C518.244 36.4787 518.076 37.6267 518.076 38.1727C518.076 38.8027 518.23 38.9707 518.734 38.9707H521.604C522.402 38.9707 523.046 39.0267 523.69 39.0267C524.502 39.0267 524.432 38.6907 524.53 38.0047C524.572 37.6967 524.614 37.4587 524.614 37.2767C524.614 37.0947 524.544 36.9827 524.376 36.9827C524.068 36.9827 524.04 37.4447 523.648 37.5847C523.396 37.6687 522.962 37.6827 522.122 37.6827H519.308C519.112 37.6827 519.028 37.5987 519.028 37.4307C519.028 37.1927 519.21 36.7447 519.518 36.3807C520.512 35.2327 522.36 34.7007 523.522 33.6227C524.194 32.9927 524.488 32.2787 524.488 31.5507C524.488 29.9267 523.074 28.8067 521.226 28.8067C520.036 28.8067 519.14 29.2407 518.762 29.5767ZM525.424 35.5407C525.424 35.6387 525.48 35.6947 525.578 35.6947H528.756C528.854 35.6947 528.91 35.6387 528.91 35.5407V34.7427C528.91 34.6447 528.854 34.5887 528.756 34.5887H525.578C525.466 34.5887 525.424 34.6447 525.424 34.7427V35.5407ZM535.99 35.3587C535.878 35.3587 535.836 35.3307 535.836 35.2187V30.5707C535.836 30.4167 535.766 30.3607 535.626 30.3607H534.702C534.576 30.3607 534.506 30.4307 534.506 30.5707V35.2187C534.506 35.3307 534.464 35.3587 534.366 35.3587H531.44C531.398 35.3587 531.37 35.3447 531.37 35.3167C531.37 35.3027 531.37 35.2887 531.426 35.2187C533.008 33.1187 534.03 30.8927 534.198 29.1007C534.212 28.9607 534.212 28.9467 534.212 28.9327C534.212 28.8347 534.142 28.8067 534.03 28.8067H533.148C533.036 28.8067 532.966 28.8627 532.966 28.9747C532.868 31.2287 532.126 33.2167 530.292 35.5267C530.208 35.6387 530.18 35.7087 530.18 35.8347V36.2547C530.18 36.3947 530.25 36.4647 530.39 36.4647H534.352C534.478 36.4647 534.506 36.4927 534.506 36.6187C534.492 37.5007 534.408 37.7947 534.31 37.9907C534.212 38.1867 534.03 38.3267 533.862 38.4107C533.694 38.4947 533.61 38.5787 533.61 38.7047C533.61 38.8867 533.792 38.9707 534.002 38.9707H536.34C536.55 38.9707 536.732 38.8867 536.732 38.7047C536.732 38.5787 536.648 38.4947 536.48 38.4107C536.312 38.3267 536.13 38.1867 536.032 37.9907C535.934 37.7947 535.85 37.5007 535.836 36.6187C535.836 36.5067 535.864 36.4647 535.99 36.4647H537.292C537.446 36.4647 537.516 36.3807 537.516 36.2407V35.5827C537.516 35.4427 537.446 35.3587 537.292 35.3587H535.99ZM546.235 37.5007C545.969 37.5007 545.703 38.0467 544.975 38.0467C544.429 38.0467 543.967 37.7387 543.869 36.6327C543.813 35.9887 543.813 35.5267 543.813 35.0087C543.813 34.5887 543.855 33.0487 543.855 32.8667C543.855 32.7547 543.911 32.6987 544.023 32.6987C544.275 32.6987 544.499 32.6987 544.779 32.7127C545.115 32.7267 545.423 32.7687 545.675 32.7687C546.039 32.7687 546.221 32.6707 546.277 32.3347C546.291 32.2367 546.319 32.1387 546.319 32.0687C546.319 31.8867 546.179 31.8167 545.871 31.8167C545.577 31.8167 545.185 31.8587 544.891 31.8867C544.569 31.9147 544.387 31.9147 544.177 31.9147C543.925 31.9147 543.869 31.8447 543.869 31.5927V30.1367C543.869 30.0387 543.813 29.9827 543.701 29.9827H543.127C543.015 29.9827 542.973 30.0387 542.945 30.1507C542.847 30.6127 542.791 30.9907 542.623 31.2707C542.455 31.5507 542.147 31.7467 541.531 31.9147C541.433 31.9427 541.391 31.9987 541.391 32.0827V32.5307C541.391 32.6427 541.447 32.6987 541.545 32.6987H542.427C542.525 32.6987 542.567 32.7407 542.567 32.8387C542.567 34.2247 542.469 35.4847 542.469 36.7167C542.469 37.4307 542.581 38.0047 542.861 38.3827C543.197 38.8447 543.701 39.1247 544.387 39.1247C545.045 39.1247 545.605 38.8587 545.983 38.5227C546.277 38.2707 546.487 37.9487 546.487 37.7387C546.487 37.5987 546.375 37.5007 546.235 37.5007ZM554.243 31.6627H552.297C552.045 31.6627 551.877 31.7467 551.877 31.9287C551.877 32.3067 552.563 32.1667 552.563 32.9227C552.563 33.2867 552.381 33.7907 552.045 34.6587L551.051 37.1787C551.023 37.2487 551.009 37.2627 550.981 37.2627C550.953 37.2627 550.953 37.2487 550.925 37.1787L549.483 33.6087C549.315 33.2027 549.259 32.9227 549.259 32.7407C549.259 32.1807 549.917 32.2507 549.917 31.9147C549.917 31.7607 549.777 31.6627 549.553 31.6627H547.271C546.963 31.6627 546.837 31.7607 546.837 31.9287C546.837 32.1947 547.145 32.1947 547.383 32.3767C547.663 32.6007 547.859 33.0767 548.097 33.7067L550.155 38.9567C550.169 38.9987 550.183 39.0407 550.183 39.0827C550.183 39.1247 550.169 39.1667 550.141 39.2227C549.861 39.7687 549.455 40.5107 548.797 40.5107C548.125 40.5107 548.027 39.9227 547.621 39.9227C547.285 39.9227 547.145 40.2587 547.145 40.6087C547.145 41.3367 547.635 41.6727 548.251 41.6727C548.573 41.6727 548.937 41.5747 549.301 41.3647C550.239 40.8187 550.785 39.7267 551.247 38.6347C551.737 37.4727 552.829 34.7707 553.179 33.9587C553.403 33.4407 553.627 32.9507 553.907 32.6287C554.271 32.2087 554.677 32.2227 554.677 31.9147C554.677 31.7327 554.523 31.6627 554.243 31.6627ZM559.246 38.4247C558.07 38.4247 557.244 37.3327 557.244 35.3867C557.244 33.5387 558.014 32.5167 559.176 32.5167C560.268 32.5167 561.22 33.5807 561.22 35.4567C561.22 37.2067 560.492 38.4247 559.246 38.4247ZM559.722 31.5087C558.812 31.5087 557.986 31.9987 557.426 32.6847C557.37 32.7547 557.342 32.7547 557.314 32.7547C557.272 32.7547 557.244 32.7127 557.244 32.6427V31.8727C557.244 31.6207 557.132 31.5087 556.964 31.5087C556.88 31.5087 556.782 31.5367 556.684 31.5787C556.264 31.7607 555.886 31.8727 555.368 31.9847C555.046 32.0547 554.976 32.1527 554.976 32.2787C554.976 32.6287 555.536 32.5167 555.774 32.8807C555.914 33.1047 555.914 33.3707 555.914 33.8887V39.2227C555.914 39.8667 555.886 40.3287 555.788 40.5947C555.62 41.0847 555.032 41.0987 555.032 41.4067C555.032 41.6027 555.214 41.6727 555.424 41.6727H557.748C557.958 41.6727 558.126 41.5887 558.126 41.3927C558.126 41.0847 557.636 41.1267 557.412 40.6507C557.286 40.3847 557.244 39.9227 557.244 39.2647V38.6067C557.244 38.5647 557.272 38.5367 557.3 38.5367C557.412 38.5367 558.07 39.1247 559.246 39.1247C561.444 39.1247 562.592 36.8987 562.592 34.9667C562.592 32.8107 561.304 31.5087 559.722 31.5087ZM565.156 34.1827C565.324 33.1467 566.038 32.1947 567.158 32.1947C568.152 32.1947 568.712 32.9647 568.712 33.6087C568.712 34.2527 568.348 34.4207 567.536 34.4207C567.536 34.4207 565.352 34.4207 565.254 34.4207C565.17 34.4207 565.142 34.4067 565.142 34.3367C565.142 34.3227 565.142 34.2947 565.156 34.1827ZM569.678 37.1647C569.342 37.1647 568.782 38.1167 567.41 38.1167C565.926 38.1167 565.086 36.8007 565.086 35.3307V35.2607C565.086 35.1627 565.142 35.1207 565.24 35.1207C565.338 35.1207 569.034 35.1207 569.034 35.1207C569.72 35.1067 570.14 34.9807 570.14 34.1267C570.14 33.1467 569.3 31.5087 567.284 31.5087C565.114 31.5087 563.658 33.4827 563.658 35.5267C563.658 37.4447 564.918 39.1247 567.06 39.1247C568.922 39.1247 569.986 37.8507 569.986 37.4587C569.986 37.2627 569.846 37.1647 569.678 37.1647ZM571.119 37.0947C571.119 37.5287 571.203 38.1447 571.497 38.4387C571.861 38.8027 572.771 39.1247 573.751 39.1247C575.501 39.1247 576.677 38.0747 576.677 36.7867C576.677 35.5127 575.683 35.0367 574.675 34.7007C573.653 34.3507 572.617 34.1547 572.617 33.2867C572.617 32.6287 573.247 32.2367 573.835 32.2367C574.535 32.2367 574.941 32.6567 575.221 33.0627C575.515 33.4967 575.543 33.7907 575.879 33.7907C576.285 33.7907 576.299 33.3007 576.299 32.9787C576.299 32.6287 576.215 32.1807 575.851 31.9147C575.529 31.6767 574.871 31.5087 574.185 31.5087C572.645 31.5087 571.385 32.4187 571.385 33.7767C571.385 36.2687 575.431 35.3867 575.431 37.2207C575.431 37.8507 574.871 38.3967 574.017 38.3967C573.149 38.3967 572.645 37.8647 572.281 37.3607C571.973 36.9267 571.819 36.4927 571.497 36.4927C571.175 36.4927 571.119 36.7867 571.119 37.0947ZM586.299 35.6807C586.299 37.0527 585.697 38.3967 584.311 38.3967C582.939 38.3967 582.029 36.7867 582.029 34.8547C582.029 33.3007 582.785 32.2087 584.017 32.2087C585.585 32.2087 586.299 34.0707 586.299 35.6807ZM584.213 31.5087C582.085 31.5087 580.601 33.2587 580.601 35.3727C580.601 37.6547 582.043 39.1247 584.171 39.1247C586.257 39.1247 587.727 37.3747 587.727 35.2747C587.727 33.1607 586.439 31.5087 584.213 31.5087ZM593.829 28.7507C593.619 28.5967 593.311 28.5127 592.933 28.5127C591.883 28.5127 589.923 29.0867 589.797 31.7747C589.797 31.8727 589.755 31.9147 589.643 31.9147C589.475 31.9147 588.775 31.9147 588.775 31.9147C588.663 31.9147 588.607 31.9567 588.607 32.0687V32.5447C588.607 32.6567 588.677 32.6987 588.775 32.6987C588.775 32.6987 589.559 32.6987 589.643 32.6987C589.741 32.6987 589.783 32.7267 589.783 32.8107V36.5207C589.783 37.1787 589.755 37.6127 589.643 37.8927C589.405 38.4527 588.901 38.3827 588.901 38.7047C588.901 38.9007 589.069 38.9707 589.293 38.9707H591.603C591.813 38.9707 591.995 38.9007 591.995 38.7047C591.995 38.3967 591.505 38.4527 591.281 37.9487C591.155 37.6687 591.113 37.2207 591.113 36.5207V32.8667C591.113 32.7407 591.155 32.6987 591.295 32.6987C591.519 32.6987 591.757 32.6987 592.023 32.7127C592.359 32.7267 592.639 32.7547 592.905 32.7547C593.241 32.7547 593.451 32.7267 593.521 32.3207C593.535 32.2367 593.563 32.1247 593.563 32.0407C593.563 31.8167 593.311 31.8167 593.171 31.8167C592.877 31.8167 592.499 31.8867 592.163 31.9007C591.827 31.9147 591.505 31.9147 591.253 31.9147C591.155 31.9147 591.113 31.8727 591.113 31.7747C591.113 30.8507 591.197 29.3387 592.261 29.3387C593.087 29.3387 593.367 30.3047 593.801 30.3047C594.095 30.3047 594.179 30.0807 594.179 29.7167C594.179 29.4507 594.137 28.9887 593.829 28.7507ZM603.401 37.4587C603.401 37.3187 603.303 37.1927 603.149 37.1927C602.827 37.1927 602.351 38.1307 601.105 38.1307C599.509 38.1307 598.795 36.6467 598.795 35.1067C598.795 33.3287 599.719 32.2647 600.811 32.2647C601.553 32.2647 601.987 32.7827 602.197 33.1327C602.407 33.4827 602.477 33.8187 602.799 33.8187C603.065 33.8187 603.205 33.6227 603.205 32.9647C603.205 32.6287 603.149 32.2367 602.939 32.0267C602.575 31.6487 601.763 31.5087 601.203 31.5087C598.865 31.5087 597.395 33.5807 597.395 35.7507C597.395 37.8507 598.809 39.1247 600.587 39.1247C602.435 39.1247 603.401 37.8367 603.401 37.4587ZM609.98 35.6807C609.98 37.0527 609.378 38.3967 607.992 38.3967C606.62 38.3967 605.71 36.7867 605.71 34.8547C605.71 33.3007 606.466 32.2087 607.698 32.2087C609.266 32.2087 609.98 34.0707 609.98 35.6807ZM607.894 31.5087C605.766 31.5087 604.282 33.2587 604.282 35.3727C604.282 37.6547 605.724 39.1247 607.852 39.1247C609.938 39.1247 611.408 37.3747 611.408 35.2747C611.408 33.1607 610.12 31.5087 607.894 31.5087ZM619.399 34.2807C619.399 33.3007 619.231 32.7967 618.923 32.3767C618.545 31.8587 617.887 31.5087 617.089 31.5087C616.039 31.5087 615.255 32.0827 614.821 32.7267C614.793 32.7687 614.779 32.7967 614.751 32.7967C614.723 32.7967 614.709 32.7687 614.709 32.7267V31.9007C614.709 31.6347 614.583 31.5087 614.401 31.5087C614.317 31.5087 614.233 31.5367 614.135 31.5787C613.771 31.7467 613.351 31.8867 612.833 31.9987C612.511 32.0687 612.441 32.1667 612.441 32.3207C612.441 32.6287 613.029 32.5587 613.253 32.8947C613.379 33.0767 613.393 33.3287 613.393 33.7767V36.5067C613.393 37.1927 613.351 37.6687 613.225 37.9487C613.015 38.3967 612.511 38.4107 612.511 38.7047C612.511 38.9007 612.679 38.9707 612.889 38.9707H615.213C615.423 38.9707 615.591 38.9007 615.591 38.7047C615.591 38.4527 615.143 38.4107 614.905 38.0047C614.751 37.7387 614.709 37.2207 614.709 36.5067C614.709 34.3507 614.835 33.5947 615.367 33.0627C615.703 32.7267 616.151 32.5727 616.571 32.5727C617.397 32.5727 618.041 33.1047 618.041 34.3227V36.5067C618.041 37.2067 617.999 37.7107 617.859 37.9767C617.635 38.4107 617.159 38.4247 617.159 38.7047C617.159 38.9007 617.341 38.9707 617.551 38.9707H619.903C620.113 38.9707 620.295 38.9007 620.295 38.7047C620.295 38.4527 619.847 38.3967 619.609 38.0327C619.441 37.7667 619.399 37.2347 619.399 36.5067V34.2807ZM625.78 37.5007C625.514 37.5007 625.248 38.0467 624.52 38.0467C623.974 38.0467 623.512 37.7387 623.414 36.6327C623.358 35.9887 623.358 35.5267 623.358 35.0087C623.358 34.5887 623.4 33.0487 623.4 32.8667C623.4 32.7547 623.456 32.6987 623.568 32.6987C623.82 32.6987 624.044 32.6987 624.324 32.7127C624.66 32.7267 624.968 32.7687 625.22 32.7687C625.584 32.7687 625.766 32.6707 625.822 32.3347C625.836 32.2367 625.864 32.1387 625.864 32.0687C625.864 31.8867 625.724 31.8167 625.416 31.8167C625.122 31.8167 624.73 31.8587 624.436 31.8867C624.114 31.9147 623.932 31.9147 623.722 31.9147C623.47 31.9147 623.414 31.8447 623.414 31.5927V30.1367C623.414 30.0387 623.358 29.9827 623.246 29.9827H622.672C622.56 29.9827 622.518 30.0387 622.49 30.1507C622.392 30.6127 622.336 30.9907 622.168 31.2707C622 31.5507 621.692 31.7467 621.076 31.9147C620.978 31.9427 620.936 31.9987 620.936 32.0827V32.5307C620.936 32.6427 620.992 32.6987 621.09 32.6987H621.972C622.07 32.6987 622.112 32.7407 622.112 32.8387C622.112 34.2247 622.014 35.4847 622.014 36.7167C622.014 37.4307 622.126 38.0047 622.406 38.3827C622.742 38.8447 623.246 39.1247 623.932 39.1247C624.59 39.1247 625.15 38.8587 625.528 38.5227C625.822 38.2707 626.032 37.9487 626.032 37.7387C626.032 37.5987 625.92 37.5007 625.78 37.5007ZM628.26 34.1827C628.428 33.1467 629.142 32.1947 630.262 32.1947C631.256 32.1947 631.816 32.9647 631.816 33.6087C631.816 34.2527 631.452 34.4207 630.64 34.4207C630.64 34.4207 628.456 34.4207 628.358 34.4207C628.274 34.4207 628.246 34.4067 628.246 34.3367C628.246 34.3227 628.246 34.2947 628.26 34.1827ZM632.782 37.1647C632.446 37.1647 631.886 38.1167 630.514 38.1167C629.03 38.1167 628.19 36.8007 628.19 35.3307V35.2607C628.19 35.1627 628.246 35.1207 628.344 35.1207C628.442 35.1207 632.138 35.1207 632.138 35.1207C632.824 35.1067 633.244 34.9807 633.244 34.1267C633.244 33.1467 632.404 31.5087 630.388 31.5087C628.218 31.5087 626.762 33.4827 626.762 35.5267C626.762 37.4447 628.022 39.1247 630.164 39.1247C632.026 39.1247 633.09 37.8507 633.09 37.4587C633.09 37.2627 632.95 37.1647 632.782 37.1647ZM641.169 34.2807C641.169 33.3007 641.001 32.7967 640.693 32.3767C640.315 31.8587 639.657 31.5087 638.859 31.5087C637.809 31.5087 637.025 32.0827 636.591 32.7267C636.563 32.7687 636.549 32.7967 636.521 32.7967C636.493 32.7967 636.479 32.7687 636.479 32.7267V31.9007C636.479 31.6347 636.353 31.5087 636.171 31.5087C636.087 31.5087 636.003 31.5367 635.905 31.5787C635.541 31.7467 635.121 31.8867 634.603 31.9987C634.281 32.0687 634.211 32.1667 634.211 32.3207C634.211 32.6287 634.799 32.5587 635.023 32.8947C635.149 33.0767 635.163 33.3287 635.163 33.7767V36.5067C635.163 37.1927 635.121 37.6687 634.995 37.9487C634.785 38.3967 634.281 38.4107 634.281 38.7047C634.281 38.9007 634.449 38.9707 634.659 38.9707H636.983C637.193 38.9707 637.361 38.9007 637.361 38.7047C637.361 38.4527 636.913 38.4107 636.675 38.0047C636.521 37.7387 636.479 37.2207 636.479 36.5067C636.479 34.3507 636.605 33.5947 637.137 33.0627C637.473 32.7267 637.921 32.5727 638.341 32.5727C639.167 32.5727 639.811 33.1047 639.811 34.3227V36.5067C639.811 37.2067 639.769 37.7107 639.629 37.9767C639.405 38.4107 638.929 38.4247 638.929 38.7047C638.929 38.9007 639.111 38.9707 639.321 38.9707H641.673C641.883 38.9707 642.065 38.9007 642.065 38.7047C642.065 38.4527 641.617 38.3967 641.379 38.0327C641.211 37.7667 641.169 37.2347 641.169 36.5067V34.2807ZM647.55 37.5007C647.284 37.5007 647.018 38.0467 646.29 38.0467C645.744 38.0467 645.282 37.7387 645.184 36.6327C645.128 35.9887 645.128 35.5267 645.128 35.0087C645.128 34.5887 645.17 33.0487 645.17 32.8667C645.17 32.7547 645.226 32.6987 645.338 32.6987C645.59 32.6987 645.814 32.6987 646.094 32.7127C646.43 32.7267 646.738 32.7687 646.99 32.7687C647.354 32.7687 647.536 32.6707 647.592 32.3347C647.606 32.2367 647.634 32.1387 647.634 32.0687C647.634 31.8867 647.494 31.8167 647.186 31.8167C646.892 31.8167 646.5 31.8587 646.206 31.8867C645.884 31.9147 645.702 31.9147 645.492 31.9147C645.24 31.9147 645.184 31.8447 645.184 31.5927V30.1367C645.184 30.0387 645.128 29.9827 645.016 29.9827H644.442C644.33 29.9827 644.288 30.0387 644.26 30.1507C644.162 30.6127 644.106 30.9907 643.938 31.2707C643.77 31.5507 643.462 31.7467 642.846 31.9147C642.748 31.9427 642.706 31.9987 642.706 32.0827V32.5307C642.706 32.6427 642.762 32.6987 642.86 32.6987H643.742C643.84 32.6987 643.882 32.7407 643.882 32.8387C643.882 34.2247 643.784 35.4847 643.784 36.7167C643.784 37.4307 643.896 38.0047 644.176 38.3827C644.512 38.8447 645.016 39.1247 645.702 39.1247C646.36 39.1247 646.92 38.8587 647.298 38.5227C647.592 38.2707 647.802 37.9487 647.802 37.7387C647.802 37.5987 647.69 37.5007 647.55 37.5007Z" fill="#004C12"/>
</svg>
