<svg width="181" height="182" viewBox="0 0 181 182" fill="none" xmlns="http://www.w3.org/2000/svg">
<circle cx="90.5" cy="91.5" r="90" fill="#004C12" stroke="#004C12"/>
<mask id="path-2-outside-1_664_2061" maskUnits="userSpaceOnUse" x="34" y="0" width="147" height="182" fill="black">
<rect fill="white" x="34" width="147" height="182"/>
<path d="M36.0945 162.565C47.3707 171.198 60.5393 177.024 74.5122 179.56C88.4851 182.097 102.861 181.273 116.452 177.155C130.043 173.037 142.46 165.744 152.675 155.878C162.89 146.013 170.611 133.858 175.199 120.418C179.788 106.979 181.113 92.6403 179.064 78.5876C177.015 64.5349 171.651 51.1714 163.416 39.6015C155.181 28.0316 144.311 18.5873 131.705 12.0492C119.098 5.51113 105.116 2.06684 90.9151 2.00096L90.5 91.5L36.0945 162.565Z"/>
</mask>
<path d="M36.0945 162.565C47.3707 171.198 60.5393 177.024 74.5122 179.56C88.4851 182.097 102.861 181.273 116.452 177.155C130.043 173.037 142.46 165.744 152.675 155.878C162.89 146.013 170.611 133.858 175.199 120.418C179.788 106.979 181.113 92.6403 179.064 78.5876C177.015 64.5349 171.651 51.1714 163.416 39.6015C155.181 28.0316 144.311 18.5873 131.705 12.0492C119.098 5.51113 105.116 2.06684 90.9151 2.00096L90.5 91.5L36.0945 162.565Z" fill="#CCFC51"/>
<path d="M36.0945 162.565C47.3707 171.198 60.5393 177.024 74.5122 179.56C88.4851 182.097 102.861 181.273 116.452 177.155C130.043 173.037 142.46 165.744 152.675 155.878C162.89 146.013 170.611 133.858 175.199 120.418C179.788 106.979 181.113 92.6403 179.064 78.5876C177.015 64.5349 171.651 51.1714 163.416 39.6015C155.181 28.0316 144.311 18.5873 131.705 12.0492C119.098 5.51113 105.116 2.06684 90.9151 2.00096L90.5 91.5L36.0945 162.565Z" stroke="#004C12" stroke-width="2" mask="url(#path-2-outside-1_664_2061)"/>
</svg>
