<svg width="181" height="181" viewBox="0 0 181 181" fill="none" xmlns="http://www.w3.org/2000/svg">
<circle cx="90.5" cy="90.5" r="90" fill="#004C12" stroke="#004C12"/>
<mask id="path-2-outside-1_851_574" maskUnits="userSpaceOnUse" x="89" y="0" width="92" height="92" fill="black">
<rect fill="white" x="89" width="92" height="92"/>
<path d="M180 90.5C180 78.7467 177.685 67.1085 173.187 56.2498C168.689 45.3912 162.097 35.5248 153.786 27.2139C145.475 18.9031 135.609 12.3106 124.75 7.81278C113.892 3.31498 102.253 0.999998 90.5 1L90.5 90.5H180Z"/>
</mask>
<path d="M180 90.5C180 78.7467 177.685 67.1085 173.187 56.2498C168.689 45.3912 162.097 35.5248 153.786 27.2139C145.475 18.9031 135.609 12.3106 124.75 7.81278C113.892 3.31498 102.253 0.999998 90.5 1L90.5 90.5H180Z" fill="#CCFC51"/>
<path d="M180 90.5C180 78.7467 177.685 67.1085 173.187 56.2498C168.689 45.3912 162.097 35.5248 153.786 27.2139C145.475 18.9031 135.609 12.3106 124.75 7.81278C113.892 3.31498 102.253 0.999998 90.5 1L90.5 90.5H180Z" stroke="#004C12" stroke-width="2" mask="url(#path-2-outside-1_851_574)"/>
</svg>
