<svg width="182" height="182" viewBox="0 0 182 182" fill="none" xmlns="http://www.w3.org/2000/svg">
<circle cx="91.2578" cy="91.2598" r="90" fill="#CCFC51" stroke="#004C12"/>
<mask id="path-2-outside-1_664_2055" maskUnits="userSpaceOnUse" x="0.757812" y="-0.240234" width="182" height="182" fill="black">
<rect fill="white" x="0.757812" y="-0.240234" width="182" height="182"/>
<path d="M89.6541 1.77414C66.3898 2.19108 44.2023 11.6518 27.7954 28.1506C11.3884 44.6494 2.05169 66.8893 1.76462 90.1556C1.47756 113.422 10.2627 135.885 26.2576 152.784C42.2525 169.683 64.1998 179.688 87.4467 180.679C110.694 181.669 133.413 173.568 150.787 158.092C168.162 142.615 178.827 120.981 180.52 97.7743C182.214 74.568 174.804 51.6143 159.86 33.7793C144.916 15.9443 123.614 4.63003 100.47 2.23511L91.2578 91.2598L89.6541 1.77414Z"/>
</mask>
<path d="M89.6541 1.77414C66.3898 2.19108 44.2023 11.6518 27.7954 28.1506C11.3884 44.6494 2.05169 66.8893 1.76462 90.1556C1.47756 113.422 10.2627 135.885 26.2576 152.784C42.2525 169.683 64.1998 179.688 87.4467 180.679C110.694 181.669 133.413 173.568 150.787 158.092C168.162 142.615 178.827 120.981 180.52 97.7743C182.214 74.568 174.804 51.6143 159.86 33.7793C144.916 15.9443 123.614 4.63003 100.47 2.23511L91.2578 91.2598L89.6541 1.77414Z" fill="#004C12"/>
<path d="M89.6541 1.77414C66.3898 2.19108 44.2023 11.6518 27.7954 28.1506C11.3884 44.6494 2.05169 66.8893 1.76462 90.1556C1.47756 113.422 10.2627 135.885 26.2576 152.784C42.2525 169.683 64.1998 179.688 87.4467 180.679C110.694 181.669 133.413 173.568 150.787 158.092C168.162 142.615 178.827 120.981 180.52 97.7743C182.214 74.568 174.804 51.6143 159.86 33.7793C144.916 15.9443 123.614 4.63003 100.47 2.23511L91.2578 91.2598L89.6541 1.77414Z" stroke="#004C12" stroke-width="2" mask="url(#path-2-outside-1_664_2055)"/>
</svg>
