<svg width="458" height="458" viewBox="0 0 458 458" fill="none" xmlns="http://www.w3.org/2000/svg">
<circle cx="228.994" cy="228.995" r="225.77" fill="#FDF6EC"/>
<mask id="path-2-inside-1_664_1940" fill="white">
<path d="M388.851 69.5678C431.191 111.908 454.977 169.333 454.977 229.211L229.207 229.211L388.851 69.5678Z"/>
</mask>
<path d="M388.851 69.5678C431.191 111.908 454.977 169.333 454.977 229.211L229.207 229.211L388.851 69.5678Z" fill="#004C12" stroke="#FDF6EC" stroke-width="2" mask="url(#path-2-inside-1_664_1940)"/>
<mask id="path-3-inside-2_664_1940" fill="white">
<path d="M454.741 225.749C455.294 264.126 446.053 302.011 427.892 335.824C409.731 369.637 383.249 398.262 350.949 418.995L228.995 228.997L454.741 225.749Z"/>
</mask>
<path d="M454.741 225.749C455.294 264.126 446.053 302.011 427.892 335.824C409.731 369.637 383.249 398.262 350.949 418.995L228.995 228.997L454.741 225.749Z" fill="#B7EAFF" stroke="#FDF6EC" stroke-width="2" mask="url(#path-3-inside-2_664_1940)"/>
<path fill-rule="evenodd" clip-rule="evenodd" d="M391.627 294.488C391.627 283.237 382.575 274.087 371.361 274.087C360.148 274.087 351.096 283.237 351.096 294.488C351.096 304.655 358.526 313.06 368.186 314.618V300.385H363.053V294.488H368.186V290.015C368.186 284.931 371.226 282.085 375.82 282.085C378.049 282.085 380.346 282.491 380.346 282.491V287.507H377.779C375.28 287.507 374.469 289.066 374.469 290.693V294.488H380.143L379.265 300.385H374.536V314.618C384.196 313.06 391.627 304.655 391.627 294.488Z" fill="#004C12"/>
<path fill-rule="evenodd" clip-rule="evenodd" d="M379.153 151.103C379.153 151.777 379.355 160.683 388.665 161.222C388.665 169.521 388.665 161.222 388.665 168.104C387.991 168.171 382.526 167.766 379.153 164.731V178.156C379.22 184.228 375.847 190.165 369.505 191.379C367.751 191.717 366.132 191.784 363.433 191.177C347.984 186.589 353.111 163.651 368.628 166.147C368.628 173.501 368.628 166.147 368.628 173.501C362.219 172.556 360.06 177.886 361.814 181.664C363.366 185.105 369.708 185.915 371.934 180.99C372.204 180.045 372.339 178.966 372.339 177.684V151.103H379.153Z" fill="#B7EAFF"/>
</svg>
