<svg width="181" height="181" viewBox="0 0 181 181" fill="none" xmlns="http://www.w3.org/2000/svg">
<path d="M90.5 180.5C140.206 180.5 180.5 140.206 180.5 90.5C180.5 40.7944 140.206 0.5 90.5 0.5C40.7944 0.5 0.5 40.7944 0.5 90.5C0.5 140.206 40.7944 180.5 90.5 180.5Z" fill="#CCFC51" stroke="#004C12"/>
<mask id="path-2-outside-1_664_2000" maskUnits="userSpaceOnUse" x="-7.86805e-06" y="0.000972585" width="92" height="160" fill="black">
<rect fill="white" x="-7.86805e-06" y="0.000972585" width="92" height="160"/>
<path d="M90.5 1.00097C72.2016 1.00097 54.343 6.60968 39.3302 17.0714C24.3175 27.5331 12.8721 42.345 6.53631 59.5115C0.200483 76.6779 -0.721351 95.3739 3.89502 113.08C8.51139 130.787 18.4441 146.653 32.3549 158.541L90.5 90.501L90.5 1.00097Z"/>
</mask>
<path d="M90.5 1.00097C72.2016 1.00097 54.343 6.60968 39.3302 17.0714C24.3175 27.5331 12.8721 42.345 6.53631 59.5115C0.200483 76.6779 -0.721351 95.3739 3.89502 113.08C8.51139 130.787 18.4441 146.653 32.3549 158.541L90.5 90.501L90.5 1.00097Z" fill="#004C12"/>
<path d="M90.5 1.00097C72.2016 1.00097 54.343 6.60968 39.3302 17.0714C24.3175 27.5331 12.8721 42.345 6.53631 59.5115C0.200483 76.6779 -0.721351 95.3739 3.89502 113.08C8.51139 130.787 18.4441 146.653 32.3549 158.541L90.5 90.501L90.5 1.00097Z" stroke="#004C12" stroke-width="2" mask="url(#path-2-outside-1_664_2000)"/>
</svg>
