<svg width="181" height="181" viewBox="0 0 181 181" fill="none" xmlns="http://www.w3.org/2000/svg">
<path d="M90.5 180.5C140.206 180.5 180.5 140.206 180.5 90.5C180.5 40.7944 140.206 0.5 90.5 0.5C40.7944 0.5 0.5 40.7944 0.5 90.5C0.5 140.206 40.7944 180.5 90.5 180.5Z" fill="#004C12" stroke="#004C12"/>
<mask id="path-2-outside-1_664_2020" maskUnits="userSpaceOnUse" x="89" y="0.00097088" width="42" height="91" fill="black">
<rect fill="white" x="89" y="0.00097088" width="42" height="91"/>
<path d="M90.5 1.00097C103.753 1.00097 116.84 3.94423 128.817 9.61819L90.5 90.501L90.5 1.00097Z"/>
</mask>
<path d="M90.5 1.00097C103.753 1.00097 116.84 3.94423 128.817 9.61819L90.5 90.501L90.5 1.00097Z" fill="#CCFC51"/>
<path d="M90.5 1.00097C103.753 1.00097 116.84 3.94423 128.817 9.61819L90.5 90.501L90.5 1.00097Z" stroke="#004C12" stroke-width="2" mask="url(#path-2-outside-1_664_2020)"/>
</svg>
