<svg width="181" height="181" viewBox="0 0 181 181" fill="none" xmlns="http://www.w3.org/2000/svg">
<mask id="path-1-outside-1_664_2010" maskUnits="userSpaceOnUse" x="1" y="-1" width="180" height="182" fill="black">
<rect fill="white" x="1" y="-1" width="180" height="182"/>
<path d="M2.44412 106.513C6.05126 126.349 16.2501 144.386 31.3883 157.702C46.5265 171.017 65.7172 178.832 85.8512 179.879C105.985 180.926 125.883 175.145 142.321 163.471C158.759 151.798 170.774 134.916 176.419 115.562C182.065 96.207 181.01 75.5131 173.426 56.8327C165.842 38.1523 152.173 22.5797 134.633 12.638C117.094 2.69626 96.7112 -1.03221 76.788 2.05662C56.8648 5.14545 38.5681 14.8706 24.8621 29.6566L90.5 90.5L2.44412 106.513Z"/>
</mask>
<path d="M2.44412 106.513C6.05126 126.349 16.2501 144.386 31.3883 157.702C46.5265 171.017 65.7172 178.832 85.8512 179.879C105.985 180.926 125.883 175.145 142.321 163.471C158.759 151.798 170.774 134.916 176.419 115.562C182.065 96.207 181.01 75.5131 173.426 56.8327C165.842 38.1523 152.173 22.5797 134.633 12.638C117.094 2.69626 96.7112 -1.03221 76.788 2.05662C56.8648 5.14545 38.5681 14.8706 24.8621 29.6566L90.5 90.5L2.44412 106.513Z" fill="#CCFC51"/>
<path d="M2.44412 106.513C6.05126 126.349 16.2501 144.386 31.3883 157.702C46.5265 171.017 65.7172 178.832 85.8512 179.879C105.985 180.926 125.883 175.145 142.321 163.471C158.759 151.798 170.774 134.916 176.419 115.562C182.065 96.207 181.01 75.5131 173.426 56.8327C165.842 38.1523 152.173 22.5797 134.633 12.638C117.094 2.69626 96.7112 -1.03221 76.788 2.05662C56.8648 5.14545 38.5681 14.8706 24.8621 29.6566L90.5 90.5L2.44412 106.513Z" stroke="#004C12" stroke-width="2" mask="url(#path-1-outside-1_664_2010)"/>
<mask id="path-2-outside-2_664_2010" maskUnits="userSpaceOnUse" x="0" y="0" width="156" height="181" fill="black">
<rect fill="white" width="156" height="181"/>
<path d="M90.5 1C75.7816 1 61.2904 4.62986 48.31 11.568C35.3295 18.5062 24.2605 28.5386 16.0835 40.7765C7.90638 53.0143 2.87362 67.08 1.43097 81.7275C-0.0116847 96.375 2.18031 111.152 7.81278 124.75C13.4452 138.348 22.3443 150.347 33.7218 159.684C45.0992 169.022 58.6038 175.409 73.0394 178.28C87.4749 181.152 102.396 180.419 116.48 176.146C130.565 171.874 143.379 164.194 153.786 153.786L90.5 90.5L90.5 1Z"/>
</mask>
<path d="M90.5 1C75.7816 1 61.2904 4.62986 48.31 11.568C35.3295 18.5062 24.2605 28.5386 16.0835 40.7765C7.90638 53.0143 2.87362 67.08 1.43097 81.7275C-0.0116847 96.375 2.18031 111.152 7.81278 124.75C13.4452 138.348 22.3443 150.347 33.7218 159.684C45.0992 169.022 58.6038 175.409 73.0394 178.28C87.4749 181.152 102.396 180.419 116.48 176.146C130.565 171.874 143.379 164.194 153.786 153.786L90.5 90.5L90.5 1Z" fill="#004C12"/>
<path d="M90.5 1C75.7816 1 61.2904 4.62986 48.31 11.568C35.3295 18.5062 24.2605 28.5386 16.0835 40.7765C7.90638 53.0143 2.87362 67.08 1.43097 81.7275C-0.0116847 96.375 2.18031 111.152 7.81278 124.75C13.4452 138.348 22.3443 150.347 33.7218 159.684C45.0992 169.022 58.6038 175.409 73.0394 178.28C87.4749 181.152 102.396 180.419 116.48 176.146C130.565 171.874 143.379 164.194 153.786 153.786L90.5 90.5L90.5 1Z" stroke="#004C12" stroke-width="2" mask="url(#path-2-outside-2_664_2010)"/>
</svg>
