<?xml version="1.0" encoding="UTF-8"?><svg id="a" xmlns="http://www.w3.org/2000/svg" viewBox="0 0 550.4 518.5"><path d="M463.3,474c-14.2,49.2-129.2,59.1-256.7,22.2C79.1,459.2-12.8,389.5,1.5,340.3c8.9-30.8,57.4-46.2,123.8-44.3-57.1-33.9-89.9-72.8-81-103.6,8.9-30.8,57.4-46.2,123.8-44.3-57.1-33.9-89.9-72.8-81-103.6C101.3-4.7,216.2-14.6,343.8,22.3s219.4,106.7,205.2,155.9c-8.9,30.8-57.4,46.2-123.8,44.3,57.1,33.9,89.9,72.8,81,103.6-8.9,30.8-57.4,46.2-123.8,44.3,57.1,33.9,89.9,72.8,81,103.6Z" fill="#fdf6ec"/></svg>